<ttFont>
<head>
    <!-- Most of this table will be recalculated by the compiler -->
    <tableVersion value="1.0"/>
    <fontRevision value="4.002"/>
    <checkSumAdjustment value="0x403d49a7"/>
    <magicNumber value="0x5f0f3cf5"/>
    <flags value="00000000 00000011"/>
    <unitsPerEm value="1000"/>
    <created value="Sat Mar  2 14:14:20 2019"/>
    <modified value="Sat Mar  2 14:14:20 2019"/>
    <xMin value="-642"/>
    <yMin value="-627"/>
    <xMax value="2486"/>
    <yMax value="1135"/>
    <macStyle value="00000000 00000010"/>
    <lowestRecPPEM value="3"/>
    <fontDirectionHint value="2"/>
    <indexToLocFormat value="0"/>
    <glyphDataFormat value="0"/>
  </head>
          <CharString index="0">
            -30 -169 rlineto
            return
          </CharString>
          <CharString index="1">
            54 -21 -53 40 -89 hhcurveto
            -116 -130 -63 -176 -30 hvcurveto
            -102 callsubr
            return
          </CharString>
          <CharString index="2">
            rmoveto
            -24 445 callgsubr
            -32 -6 -18 -26 -37 hhcurveto
            return
          </CharString>
          <CharString index="3">
            32 5 29 24 34 hhcurveto
            33 18 -24 -32 -5 -89 callsubr
            return
          </CharString>
          <CharString index="4">
            -31 -6 -22 -27 -36 hhcurveto
            -7 -8 1 2 -8 hvcurveto
            -27 -155 rlineto
            -9 25 26 -3 26 hhcurveto
            120 100 85 147 26 hvcurveto
            121 21 -50 104 -130 hhcurveto
            -59 -50 -19 -33 -36 hvcurveto
            19 110 rlineto
            return
          </CharString>
          <CharString index="5">
            -151 -28 80 -98 callsubr
            return
          </CharString>
          <CharString index="6">
            115 callsubr
            32 -23 -41 19 -59 hhcurveto
            -136 -90 -93 -137 -24 hvcurveto
            -95 callgsubr
            return
          </CharString>
          <CharString index="7">
            -27 callgsubr
            42 7 36 34 49 hhcurveto
            46 26 -31 -44 -8 hvcurveto
            -44 -8 -36 -33 -46 hhcurveto
            return
          </CharString>
          <CharString index="8">
            -97 callsubr
            endchar
          </CharString>
          <CharString index="9">
            -117 177 -94 callsubr
            return
          </CharString>
          <CharString index="10">
            rlineto
            -90 callgsubr
            return
          </CharString>
          <CharString index="11">
            hlineto
            -105 callgsubr
            return
          </CharString>
          <CharString index="12">
            -41 -8 -13 -24 -33 hhcurveto
            -38 -3 28 26 5 hvcurveto
            8 45 rlineto
            7 hlineto
            158 144 74 176 31 hvcurveto
            150 27 -101 82 -135 hhcurveto
            return
          </CharString>
          <CharString index="13">
            hhcurveto
            7 9 0 1 14 hvcurveto
            -100 callgsubr
            return
          </CharString>
          <CharString index="14">
            -35 -6 -27 -22 -32 hhcurveto
            -6 -6 1 1 -3 hvcurveto
            -28 -158 rlineto
            -7 26 20 -2 24 hhcurveto
            118 98 73 144 27 hvcurveto
            return
          </CharString>
          <CharString index="15">
            rmoveto
            55 48 45 56 42 -28 29 -45 -53 -49 -45 -58 -40 30 -29 42 hvcurveto
            225 hmoveto
            55 48 45 56 42 -28 29 -45 -53 -49 -45 -58 -40 30 -29 42 hvcurveto
            return
          </CharString>
          <CharString index="16">
            -131 -23 80 -88 145 -48 callsubr
            26 hvcurveto
            return
          </CharString>
          <CharString index="17">
            343 callsubr
            46 8 41 30 52 hhcurveto
            return
          </CharString>
          <CharString index="18">
            hvcurveto
            -33 -6 -27 -23 -33 hhcurveto
            -34 -20 23 33 6 hvcurveto
            return
          </CharString>
          <CharString index="19">
            -81 callsubr
            -82 callsubr
            return
          </CharString>
          <CharString index="20">
            54 -21 -53 40 -89 hhcurveto
            -116 -130 -63 -176 -30 hvcurveto
            return
          </CharString>
          <CharString index="21">
            -169 169 return
          </CharString>
          <CharString index="22">
            44 8 28 28 41 hhcurveto
            49 7 -42 -35 -7 hvcurveto
            return
          </CharString>
          <CharString index="23">
            -89 callgsubr
            34 198 rlineto
            return
          </CharString>
          <CharString index="24">
            rcurveline
            111 hlineto
            -35 -196 rlineto
            return
          </CharString>
          <CharString index="25">
            76 -96 callsubr
            return
          </CharString>
          <CharString index="26">
            571 rlineto
            return
          </CharString>
          <CharString index="27">
            326 -66 callsubr
            return
          </CharString>
          <CharString index="28">
            101 -81 callsubr
            return
          </CharString>
          <CharString index="29">
            100 -88 callsubr
            return
          </CharString>
          <CharString index="30">
            -70 -26 46 56 9 hvcurveto
            96 21 74 79 22 126 13 77 rcurveline
            return
          </CharString>
          <CharString index="31">
            35 14 38 36 257 callgsubr
            vhcurveto
            -79 -14 -85 -14 -77 hhcurveto
            -135 hlineto
            -36 -203 rlineto
            -148 -27 93 -92 158 hhcurveto
            return
          </CharString>
          <CharString index="32">
            hlineto
            -79 callsubr
            return
          </CharString>
          <CharString index="33">
            rmoveto
            64 37 -45 -62 -11 hvcurveto
            -2 -9 -2 -8 -3 -8 -147 115 rcurveline
            11 19 22 6 23 hhcurveto
            return
          </CharString>
          <CharString index="34">
            -36 -207 rlineto
            -25 -4 -9 -31 -29 hhcurveto
            -26 -4 22 34 6 hvcurveto
            return
          </CharString>
          <CharString index="35">
            -65 callsubr
            endchar
          </CharString>
          <CharString index="36">
            21 12 21 19 33 hhcurveto
            31 20 -17 -31 -6 -1 -6 -1 -6 hvcurveto
            -97 hlineto
            -160 -128 -76 -124 -93 65 -46 84 76 81 31 56 36 hvcurveto
            return
          </CharString>
          <CharString index="37">
            -65 callgsubr
            253 69 rmoveto
            5 28 rlineto
            return
          </CharString>
          <CharString index="38">
            -49 -7 190 -190 234 110 234 -190 190 hstemhm
            14 228 526 callsubr
            -180 -32 100 -109 169 hhcurveto
            145 124 86 148 53 hvcurveto
            -235 hlineto
            hintmask 10011000
            -27 -12 -18 -17 -28 hhcurveto
            -34 -19 31 68 12 hvcurveto
            68 12 29 31 34 hhcurveto
            hintmask 01101000
            28 12 -17 -27 4 hvcurveto
            235 hlineto
            148 -1 -94 86 -145 hhcurveto
            -169 -138 -109 -180 -32 hvcurveto
            return
          </CharString>
          <CharString index="39">
            41 callgsubr
            -4 callgsubr
            116 105 65 133 23 hvcurveto
            80 callsubr
            return
          </CharString>
          <CharString index="40">
            -61 -19 42 52 10 hvcurveto
            30 170 rlineto
            161 380 callgsubr
            -50 -11 -29 -35 -50 hhcurveto
            401 -16 callgsubr
            return
          </CharString>
          <CharString index="41">
            307 -101 callgsubr
            return
          </CharString>
          <CharString index="42">
            127 callgsubr
            -44 callgsubr
            return
          </CharString>
          <CharString index="43">
            hlineto
            -152 -147 -66 -174 -28 hvcurveto
            -90 callsubr
            return
          </CharString>
          <CharString index="44">
            rmoveto
            50 43 37 48 9 hvcurveto
            50 8 -30 37 -50 hhcurveto
            -48 -44 -37 -50 -8 hvcurveto
            -48 -9 31 -37 48 hhcurveto
            return
          </CharString>
          <CharString index="45">
            46 265 rlineto
            47 9 25 28 39 hhcurveto
            90 callgsubr
            return
          </CharString>
          <CharString index="46">
            -16 -93 rlineto
            199 185 callsubr
            return
          </CharString>
          <CharString index="47">
            32 6 28 56 callgsubr
            -5 -28 -23 -33 hhcurveto
            -34 -20 23 33 6 hvcurveto
            return
          </CharString>
          <CharString index="48">
            rmoveto
            -99 callgsubr
            endchar
          </CharString>
          <CharString index="49">
            28 159 rlineto
            -16 hlineto
            -61 -20 return
          </CharString>
          <CharString index="50">
            -79 -7 153 -153 202 174 202 -154 154 hstemhm
            40 204 -204 496 -218 468 callsubr
            hintmask 01101010
            526 177 rmoveto
            hintmask 01011010
            173 -282 -20 61 vvcurveto
            17 18 9 22 vhcurveto
            hintmask 01101001
            36 19 -18 -30 hvcurveto
            hintmask 01100100
            197 hlineto
            111 4 -89 91 -166 hhcurveto
            hintmask 10101010
            -149 -96 -79 -101 hvcurveto
            -186 278 32 -64 vvcurveto
            -15 -19 -12 -23 vhcurveto
            hintmask 01101010
            -34 -24 15 34 1 hvcurveto
            -213 hlineto
            -120 -20 110 -82 162 hhcurveto
            154 114 65 119 hvcurveto
            return
          </CharString>
          <CharString index="51">
            rmoveto
            -55 -47 -18 -30 -33 hvcurveto
            22 125 rlineto
            304 hlineto
            -9 -51 -7 -40 -15 -33 -37 -18 rlinecurve
            39 -21 -39 26 -63 hhcurveto
            -437 -280 rmoveto
            -40 -1 -25 28 7 36 rrcurveto
            return
          </CharString>
          <CharString index="52">
            24 -58 112 -130 hhcurveto
            -51 -44 -18 -31 -32 hvcurveto
            return
          </CharString>
          <CharString index="53">
            rmoveto
            -60 callsubr
            return
          </CharString>
          <CharString index="54">
            rlineto
            -44 hlineto
            -132 -125 -66 -150 -26 hvcurveto
            return
          </CharString>
          <CharString index="55">
            177 31 -100 107 -169 hhcurveto
            -169 -138 -109 -180 -32 hvcurveto
            -180 -32 100 -109 169 hhcurveto
            return
          </CharString>
          <CharString index="56">
            rmoveto
            -150 85 -181 -85 -25 -144 181 88 150 -88 rlineto
            return
          </CharString>
          <CharString index="57">
            -2 callsubr
            92 hlineto
            return
          </CharString>
          <CharString index="58">
            128 -55 callsubr
            return
          </CharString>
          <CharString index="59">
            hhcurveto
            158 97 95 146 return
          </CharString>
          <CharString index="60">
            rmoveto
            -55 78 callsubr
            -31 -179 rlineto
            -47 -11 -32 -38 -54 hhcurveto
            409 264 198 callgsubr
            return
          </CharString>
          <CharString index="61">
            396 -7 131 callsubr
            210 -203 187 56 91 -91 321 -321 328 -194 187 441 callgsubr
            hstemhm
            13 618 -618 1029 hintmask 0101000101000000
            744 397 rmoveto
            45 37 -19 -44 -8 hvcurveto
            -170 hlineto
            49 19 38 14 39 hhcurveto
            264 -194 rmoveto
            -235 hlineto
            hintmask 1000100010000000
            -22 -14 -23 -14 -39 hhcurveto
            -41 -28 17 59 3 hvcurveto
            391 hlineto
            6 14 4 16 3 14 rrcurveto
            hintmask 0100010001000000
            177 31 -80 107 -139 hhcurveto
            -81 -64 -31 -53 -36 hvcurveto
            hintmask 0100100001000000
            14 77 177 callsubr
            hintmask 0100010001000000
            -29 callsubr
            -182 -32 84 -107 130 hhcurveto
            75 60 33 51 36 hvcurveto
            hintmask 0010100001000000
            -14 -77 561 callsubr
            hintmask 0100100001000000
            14 77 rlineto
            -52 19 51 -32 81 hhcurveto
            hintmask 0101000101000000
            117 101 90 120 45 hvcurveto
            hintmask 0010001001000000
            -763 79 rmoveto
            62 11 42 33 46 hhcurveto
            46 30 -33 -62 580 callgsubr
            -42 -33 -46 hhcurveto
            -46 -30 33 62 11 hvcurveto
            return
          </CharString>
          <CharString index="62">
            -17 -100 -53 callsubr
            return
          </CharString>
          <CharString index="63">
            -142 -28 72 -112 145 hhcurveto
            49 40 14 25 33 hvcurveto
            return
          </CharString>
          <CharString index="64">
            442 0 262 -241 282 callsubr
            hstemhm
            576.5 178 hintmask 01110000
            142 hmoveto
            276 hlineto
            153 402 11 -402 rlineto
            276 hlineto
            287 708 rlineto
            -239 hlineto
            hintmask 10110000
            -143 -446 -17 446 rlineto
            -242 hlineto
            -174 -446 14 446 rlineto
            -239 hlineto
            return
          </CharString>
          <CharString index="65">
            173 -173 return
          </CharString>
          <CharString index="66">
            -17 -11 -18 -16 -29 hhcurveto
            -31 -22 16 57 6 hvcurveto
            356 hlineto
            5 14 3 16 3 14 rrcurveto
            return
          </CharString>
          <CharString index="67">
            -70 -24 -55 -54 -15 -88 -7 -39 1 -32 2 -19 rrcurveto
            166 hlineto
            -2 21 0 24 4 22 rrcurveto
            32 6 15 24 25 hhcurveto
            25 4 -29 -29 -5 hvcurveto
            return
          </CharString>
          <CharString index="68">
            hlineto
            -30 -169 rlineto
            335 hlineto
            -17 -100 52 callsubr
            return
          </CharString>
          <CharString index="69">
            hintmask 01010001
            221 hlineto
            58 329 rlineto
            3 19 1 15 16 vvcurveto
            hintmask 10010001
            -6 callsubr
            hintmask 01001101
            -71 callsubr
            hintmask 10110100
            -111 98 rmoveto
            27 27 22 38 vhcurveto
            70 -2 hlineto
            -41 -8 -42 -37 -44 hhcurveto
            -25 -16 11 20 hvcurveto
            endchar
          </CharString>
          <CharString index="70">
            -22 -123 357 callgsubr
            55 311 rlineto
            -189 hlineto
            return
          </CharString>
          <CharString index="71">
            339 rmoveto
            -105 callgsubr
            return
          </CharString>
          <CharString index="72">
            5 29 rlineto
            35 7 21 42 49 hhcurveto
            return
          </CharString>
          <CharString index="73">
            -90 callsubr
            111 hlineto
            return
          </CharString>
          <CharString index="74">
            32 hlineto
            39 11 -15 -20 -4 hvcurveto
            -23 -4 -23 -11 -27 hhcurveto
            return
          </CharString>
          <CharString index="75">
            -169 rlineto
            77 hlineto
            -101 -571 127 callgsubr
            return
          </CharString>
          <CharString index="76">
            -5 -29 rlineto
            168 hlineto
            return
          </CharString>
          <CharString index="77">
            82 hmoveto
            250 hlineto
            128 318 12 -318 rlineto
            250 hlineto
            234 564 341 callsubr
            -109 -347 -16 347 rlineto
            -237 hlineto
            -133 -343 13 343 rlineto
            -220 hlineto
            return
          </CharString>
          <CharString index="78">
            373 callgsubr
            -130 -122 -107 -182 -32 hvcurveto
            return
          </CharString>
          <CharString index="79">
            191 -191 513 return
          </CharString>
          <CharString index="80">
            rlineto
            -44 -8 -19 -23 -31 hhcurveto
            return
          </CharString>
          <CharString index="81">
            21 -21 571 169 return
          </CharString>
          <CharString index="82">
            99 15 -72 101 -154 hhcurveto
            -8 -8 0 -1 -8 hvcurveto
            -4 5 0 6 1 6 rrcurveto
            20 3 16 8 19 hhcurveto
            167 hlineto
            endchar
          </CharString>
          <CharString index="83">
            85 hlineto
            16 9 -5 -10 -2 hvcurveto
            -10 -2 -11 -6 -16 hhcurveto
            -150 hlineto
            -20 -113 rlineto
            173 hlineto
            67 88 27 95 17 hvcurveto
            return
          </CharString>
          <CharString index="84">
            579 callgsubr
            -30 214 rmoveto
            -42 -21 27 36 7 hvcurveto
            312 callgsubr
            22 -24 -34 -3 hvcurveto
            -2 -7 rlineto
            -35 -6 -33 -27 -39 hhcurveto
            return
          </CharString>
          <CharString index="85">
            -32 -176 rlineto
            -1 10 18 -1 7 hhcurveto
            174 -5 116 100 27 151 rrcurveto
            return
          </CharString>
          <CharString index="86">
            306 571 65 callsubr
            return
          </CharString>
          <CharString index="87">
            26 callsubr
            113 65 80 96 403 callsubr
            47 rrcurveto
            return
          </CharString>
          <CharString index="88">
            242 215 rmoveto
            -38 -215 113 callsubr
            38 215 341 493 rlineto
            -250 hlineto
            -157 -251 -69 251 rlineto
            -254 hlineto
            return
          </CharString>
          <CharString index="89">
            489 hmoveto
            234 hlineto
            -133 708 rlineto
            -256 hlineto
            -384 -708 rlineto
            233 hlineto
            return
          </CharString>
          <CharString index="90">
            hhcurveto
            52 48 17 35 37 hvcurveto
            return
          </CharString>
          <CharString index="91">
            hintmask 01111000
            697 564 rmoveto
            -222 hlineto
            hintmask 10111000
            -61 callgsubr
            hintmask 01111000
            -146 -26 60 -95 130 hhcurveto
            84 64 41 48 40 hvcurveto
            return
          </CharString>
          <CharString index="92">
            12 0 402 120 186 hstem
            0 687 vstem
            456 462 rmoveto
            -42 -8 -25 -18 -42 hhcurveto
            -88 hlineto
            21 120 rlineto
            88 hlineto
            42 18 -24 -36 -6 hvcurveto
            -331 246 rmoveto
            349 callgsubr
            45 254 89 -254 rlineto
            244 hlineto
            -106 271 107 33 65 79 17 93 rlinecurve
            130 23 -73 102 -178 hhcurveto
            return
          </CharString>
          <CharString index="93">
            rmoveto
            -60 -44 41 65 12 278 callgsubr
            8 147 -114 rcurveline
            -10 -18 -21 -6 -23 hhcurveto
            return
          </CharString>
          <CharString index="94">
            -140 -25 90 -94 152 67 callgsubr
            return
          </CharString>
          <CharString index="95">
            105 callsubr
            560 callsubr
            hintmask 01110000
            697 564 rmoveto
            -222 hlineto
            hintmask 10110000
            -61 callgsubr
            hintmask 01110000
            -146 -26 60 -95 130 hhcurveto
            84 64 41 48 40 hvcurveto
            hintmask 10110000
            -15 -85 113 callsubr
            return
          </CharString>
          <CharString index="96">
            rmoveto
            -97 238 rlineto
            -202 hlineto
            92 -238 rlineto
            return
          </CharString>
          <CharString index="97">
            -17 -97 rlineto
            196 hlineto
            return
          </CharString>
          <CharString index="98">
            -55 -59 16 49 -9 hvcurveto
            178 10 90 271 callsubr
            135 24 -77 81 -128 hhcurveto
            return
          </CharString>
          <CharString index="99">
            -43 -7 183 -183 256 33 179 41 245 -183 183 hstemhm
            26 217 -217 528 -215 215 hintmask 01110101
            84 502 rmoveto
            216 hlineto
            hintmask 10101101
            29 5 10 33 33 hhcurveto
            19 15 -13 -36 -6 hvcurveto
            -10 -56 -50 1 -17 1 rrcurveto
            -36 hlineto
            -32 -179 rlineto
            37 hlineto
            61 16 -21 -36 -6 hvcurveto
            -30 -5 -22 -19 -24 hhcurveto
            hintmask 01110101
            -42 -10 26 47 11 hvcurveto
            -216 hlineto
            -184 -29 100 -72 164 hhcurveto
            hintmask 01110010
            154 108 87 129 23 hvcurveto
            16 92 -42 49 -64 26 rrcurveto
            4 vlineto
            46 14 72 45 18 104 rrcurveto
            114 20 -70 90 -162 hhcurveto
            hintmask 01110101
            -163 -106 -86 -159 -32 hvcurveto
            endchar
          </CharString>
          <CharString index="100">
            -21 -123 87 -49 75 -5 rrcurveto
            -2 27 20 0 21 hhcurveto
            37 14 -15 -21 -3 hvcurveto
            -21 -3 -17 -12 -25 hhcurveto
            return
          </CharString>
          <CharString index="101">
            117 -90 76 -158 -161 -115 -93 -125 -42 vhcurveto
            224 hlineto
            return
          </CharString>
          <CharString index="102">
            -54 -305 29 callgsubr
            return
          </CharString>
          <CharString index="103">
            188 175 callsubr
            return
          </CharString>
          <CharString index="104">
            -5 callsubr
            endchar
          </CharString>
          <CharString index="105">
            0 callgsubr
            58 callgsubr
            return
          </CharString>
          <CharString index="106">
            174 123 104 161 28 hvcurveto
            -194 hlineto
            return
          </CharString>
          <CharString index="107">
            -19 -106 rlineto
            32 -30 -45 20 -58 hhcurveto
            return
          </CharString>
          <CharString index="108">
            22 -277 192 -192 236 34 194 80 callgsubr
            hstemhm
            -22 702 hintmask 10011010
            -37 callgsubr
            -12 -67 rlineto
            -79 -14 -41 -16 -45 hhcurveto
            hintmask 01010110
            42 callgsubr
            hintmask 01011010
            373 callgsubr
            hintmask 10011010
            -130 -122 -107 -182 -32 hvcurveto
            hintmask 01101010
            -86 callgsubr
            return
          </CharString>
          <CharString index="109">
            548 callgsubr
            -9 -50 -13 -76 28 -39 43 -15 rlinecurve
            -4 vlineto
            -61 -26 -40 -44 -14 -66 rrcurveto
            return
          </CharString>
          <CharString index="110">
            -21 -117 162 callsubr
            -721 67 callsubr
            128 187 callgsubr
            -57 -10 -17 -12 -66 hhcurveto
            return
          </CharString>
          <CharString index="111">
            14 callsubr
            392 -158 158 return
          </CharString>
          <CharString index="112">
            -42 -7 177 -177 210 40 91 -91 328 -174 174 return
          </CharString>
          <CharString index="113">
            -211 -37 110 -149 223 hhcurveto
            183 119 107 85 64 hvcurveto
            39 222 rlineto
            -361 hlineto
            -27 -157 rlineto
            177 hlineto
            -44 -41 -44 -18 -50 hhcurveto
            -109 -41 55 110 20 hvcurveto
            return
          </CharString>
          <CharString index="114">
            -138 -24 71 -65 105 hhcurveto
            105 95 65 138 24 hvcurveto
            return
          </CharString>
          <CharString index="115">
            -35 rmoveto
            -26 -147 rlineto
            72 hlineto
            -2 -11 rlineto
            -52 -9 return
          </CharString>
          <CharString index="116">
            2 0 190 -190 234 49 206 -206 448 -415 173 47 195 hstemhm
            80 221 -221 540 -219 219 hintmask 0100011010000000
            173 731 rmoveto
            hintmask 0101001010000000
            -79 -448 rlineto
            216 hlineto
            hintmask 1000111010000000
            16 3 16 17 30 hhcurveto
            32 17 -19 -40 -7 hvcurveto
            -39 -7 -19 -28 -35 hhcurveto
            hintmask 0100011010000000
            -38 -4 28 16 3 hvcurveto
            -216 hlineto
            -136 -27 83 -98 176 hhcurveto
            157 112 92 161 29 hvcurveto
            hintmask 0110010100000000
            125 22 -47 111 -142 hhcurveto
            -51 -43 -14 -23 -30 hvcurveto
            15 84 rlineto
            290 hlineto
            34 195 rlineto
            endchar
          </CharString>
          <CharString index="117">
            -66 -12 -24 -60 -114 hhcurveto
            -8 hlineto
            -7 -24 -6 -22 -4 -23 return
          </CharString>
          <CharString index="118">
            29 162 rlineto
            -19 hlineto
            -36 -7 25 33 6 hvcurveto
            7 41 rlineto
            return
          </CharString>
          <CharString index="119">
            387 callgsubr
            -4 callsubr
            return
          </CharString>
          <CharString index="120">
            15 33 6 hvcurveto
            return
          </CharString>
          <CharString index="121">
            171 -171 return
          </CharString>
          <CharString index="122">
            233 callsubr
            -25 -23 -34 hhcurveto
            -14 -79 rlineto
            113 65 80 97 403 callsubr
            46 rrcurveto
            return
          </CharString>
          <CharString index="123">
            24 134 -73 84 -102 32 10 53 rcurveline
            246 -96 callsubr
            return
          </CharString>
          <CharString index="124">
            67 callsubr
            291 59 callgsubr
            return
          </CharString>
          <CharString index="125">
            hlineto
            -6 -31 rlineto
            10 callsubr
            return
          </CharString>
          <CharString index="126">
            96 callgsubr
            -180 -31 131 -114 193 hhcurveto
            177 106 76 126 24 hvcurveto
            106 18 -67 71 -110 hhcurveto
            return
          </CharString>
          <CharString index="127">
            28 159 rlineto
            -374 hlineto
            -28 -159 rlineto
            111 hlineto
            -24 -24 -15 -30 -6 -35 rrcurveto
            return
          </CharString>
          <CharString index="128">
            hlineto
            -61 -351 rlineto
            -127 hlineto
            -12 11 -14 8 -18 6 1 4 rcurveline
            63 25 45 51 12 70 rrcurveto
            return
          </CharString>
          <CharString index="129">
            -28 -5 -23 -19 -26 hhcurveto
            -26 -17 19 28 5 hvcurveto
            29 5 23 18 26 hhcurveto
            26 17 -18 -29 -5 hvcurveto
            return
          </CharString>
          <CharString index="130">
            422 callsubr
            -60 callgsubr
            return
          </CharString>
          <CharString index="131">
            94 -5 276 callgsubr
            hstemhm
            36 227 hintmask 11101000
            43 355 rmoveto
            6 callsubr
            hintmask 11011000
            94 16 59 61 86 hhcurveto
            hintmask 11101000
            46 29 -17 -27 12 hvcurveto
            234 hlineto
            151 6 -104 98 -188 hhcurveto
            -222 -162 -149 -211 -37 hvcurveto
            return
          </CharString>
          <CharString index="132">
            -65 -16 23 39 7 hvcurveto
            -103 hlineto
            -3 -17 rlineto
            return
          </CharString>
          <CharString index="133">
            8 callsubr
            -25 -23 -34 hhcurveto
            -14 -78 rlineto
            return
          </CharString>
          <CharString index="134">
            10 42 hhcurveto
            52 hlineto
            29 163 rlineto
            return
          </CharString>
          <CharString index="135">
            -50 callgsubr
            77 callgsubr
            return
          </CharString>
          <CharString index="136">
            -14 callsubr
            37 213 154 callsubr
          </CharString>
          <CharString index="137">
            -308 696 rmoveto
            9 52 rlineto
            57 10 35 78 196 hhcurveto
            200 7 -78 -57 -10 hvcurveto
            -1 -8 rlineto
            -83 hlineto
            232 callsubr
            30 169 rlineto
            -76 hlineto
            return
          </CharString>
          <CharString index="138">
            85 0 198 70 176 70 444 callsubr
            -47 -264 rlineto
            -49 hlineto
            -31 -176 rlineto
            49 hlineto
            -47 -268 283 callsubr
            12 70 rlineto
            131 hlineto
            487 callsubr
            -130 hlineto
            12 70 432 callgsubr
          </CharString>
          <CharString index="139">
            -30 -5 -26 -37 -43 hhcurveto
            -33 -21 23 32 6 hvcurveto
            6 31 22 18 35 16 rrcurveto
            return
          </CharString>
          <CharString index="140">
            225 callsubr
            15 3 13 8 18 hhcurveto
            191 hlineto
            return
          </CharString>
          <CharString index="141">
            hhcurveto
            -179 -110 451 callgsubr
            -18 hvcurveto
            return
          </CharString>
          <CharString index="142">
            -12 -67 -56 -14 -42 -31 -29 -41 rlinecurve
            return
          </CharString>
          <CharString index="143">
            -101 callgsubr
            299 149 rmoveto
            20 115 rlineto
            110 hlineto
            -12 -69 -47 -3 -40 -17 -31 -26 rlinecurve
            364 -149 -80 callgsubr
            -1669 -21 callgsubr
            return
          </CharString>
          <CharString index="144">
            221 -178 169 -161 43 callsubr
            return
          </CharString>
          <CharString index="145">
            41 callgsubr
            -138 -25 97 258 callgsubr
            116 104 354 callgsubr
            return
          </CharString>
          <CharString index="146">
            76 callgsubr
            544 callsubr
            endchar
          </CharString>
          <CharString index="147">
            -169 68 callsubr
            return
          </CharString>
          <CharString index="148">
            400 87 callsubr
            return
          </CharString>
          <CharString index="149">
            206 174 callsubr
            19 -24 -32 -6 hvcurveto
            -33 return
          </CharString>
          <CharString index="150">
            170 hstemhm
            38 212 -168 4 callsubr
            return
          </CharString>
          <CharString index="151">
            rmoveto
            -64 -22 42 62 11 hvcurveto
            8 46 return
          </CharString>
          <CharString index="152">
            -45 callgsubr
            106 -17 0 -51 90 hvcurveto
            -92 -12 callgsubr
            return
          </CharString>
          <CharString index="153">
            -12 callgsubr
            204 hlineto
            return
          </CharString>
          <CharString index="154">
            143 -143 352 -94 callgsubr
            return
          </CharString>
          <CharString index="155">
            -62 callsubr
            -93 callsubr
            return
          </CharString>
          <CharString index="156">
            rmoveto
            -148 -244 rlineto
            133 hlineto
            183 244 rlineto
            -413 hmoveto
            -123 -244 rlineto
            133 hlineto
            158 244 rlineto
            endchar
          </CharString>
          <CharString index="157">
            -107 callgsubr
            286 hlineto
            -7 -43 rlineto
            -45 hlineto
            -105 -90 -44 -108 -18 hvcurveto
            return
          </CharString>
          <CharString index="158">
            136 41 -65 85 -137 hhcurveto
            return
          </CharString>
          <CharString index="159">
            -53 callsubr
            232 callgsubr
            return
          </CharString>
          <CharString index="160">
            520 553 callgsubr
            -24 -136 rlineto
            -135 hlineto
            11 callgsubr
            return
          </CharString>
          <CharString index="161">
            338 callgsubr
            -281 hlineto
            -52 -296 rlineto
            return
          </CharString>
          <CharString index="162">
            hlineto
            -152 -147 -66 -174 -28 hvcurveto
            return
          </CharString>
          <CharString index="163">
            -188 -33 106 -118 201 hhcurveto
            return
          </CharString>
          <CharString index="164">
            -10 callsubr
            47 return
          </CharString>
          <CharString index="165">
            44 callsubr
            149 -99 -2 -3 rlineto
            -29 -16 -26 -19 -38 hhcurveto
            152 148 rmoveto
            -196 131 rlineto
            1 423 vlineto
            -9 -53 -91 -4 -74 -28 -53 -47 rlinecurve
            return
          </CharString>
          <CharString index="166">
            15 85 124 callgsubr
            -100 -564 113 callsubr
            53 300 rlineto
            53 10 35 33 49 hhcurveto
            return
          </CharString>
          <CharString index="167">
            381 263 45 callgsubr
            281 hmoveto
            -105 callgsubr
            return
          </CharString>
          <CharString index="168">
            112 20 -69 73 -134 hhcurveto
            -138 -101 -87 -123 -22 hvcurveto
            187 hlineto
            return
          </CharString>
          <CharString index="169">
            22 433 callgsubr
            -7 -20 return
          </CharString>
          <CharString index="170">
            -14 -77 561 callsubr
            100 564 177 callsubr
            return
          </CharString>
          <CharString index="171">
            -107 callgsubr
            395 hlineto
            return
          </CharString>
          <CharString index="172">
            rmoveto
            -82 callsubr
            return
          </CharString>
          <CharString index="173">
            406 callgsubr
            -635 -107 callgsubr
            336 528 callsubr
            -157 -124 -77 -152 -27 hvcurveto
            return
          </CharString>
          <CharString index="174">
            hlineto
            -29 -169 rlineto
            return
          </CharString>
          <CharString index="175">
            12 callsubr
            -156 159 return
          </CharString>
          <CharString index="176">
            169 -164 173 hstemhm
            23 221 -129 137 callsubr
            463 -177 177 return
          </CharString>
          <CharString index="177">
            -82 -14 50 -50 73 hhcurveto
            73 68 50 82 14 hvcurveto
            82 15 -51 50 -73 hhcurveto
            return
          </CharString>
          <CharString index="178">
            -29 -163 rlineto
            49 hlineto
            42 17 -21 -29 -5 hvcurveto
            -25 -4 -17 -18 -26 hhcurveto
            return
          </CharString>
          <CharString index="179">
            13 callsubr
            424 callgsubr
            return
          </CharString>
          <CharString index="180">
            -25 -25 -3 -6 -22 hvcurveto
            -734 -107 callgsubr
            590 hlineto
            -6 -21 -4 -21 -1 -23 rrcurveto
            183 hlineto
            18 callgsubr
            -354 hlineto
            -135 -132 -55 -155 -27 hvcurveto
            -147 -27 106 -94 124 hhcurveto
            120 106 62 135 24 hvcurveto
            endchar
          </CharString>
          <CharString index="181">
            -9 -51 -9 -50 -20 -40 -65 -13 rlinecurve
            54 -46 -84 20 -92 hhcurveto
            -156 hlineto
            -135 -129 -54 -156 -28 hvcurveto
            return
          </CharString>
          <CharString index="182">
            182 callsubr
            150 -100 rlineto
            -30 -16 -30 -20 -37 hhcurveto
            return
          </CharString>
          <CharString index="183">
            -6 -32 -30 -27 -40 -1 rrcurveto
            823 375 callgsubr
            return
          </CharString>
          <CharString index="184">
            115 0 274 441 callgsubr
            434 -20 return
          </CharString>
          <CharString index="185">
            -16 13 callgsubr
            160 hlineto
            return
          </CharString>
          <CharString index="186">
            rmoveto
            -28 callgsubr
            return
          </CharString>
          <CharString index="187">
            5 33 -2 28 -5 24 rrcurveto
            return
          </CharString>
          <CharString index="188">
            -42 callsubr
            261 return
          </CharString>
          <CharString index="189">
            187 hintmask 0100101010000000
            107 callsubr
            hintmask 0010001010000000
            85 callsubr
            hintmask 0001001001000000
            113 90 60 99 33 hvcurveto
            74 hlineto
            hintmask 1000001001000000
            546 callsubr
            return
          </CharString>
          <CharString index="190">
            85 0 198 316 444 callsubr
            -125 -708 283 callsubr
            56 316 202 callsubr
            return
          </CharString>
          <CharString index="191">
            264 callsubr
            -1 510 callsubr
            rrcurveto
            return
          </CharString>
          <CharString index="192">
            -28 -10 21 21 4 hvcurveto
            -190 hlineto
            -129 -23 80 -87 149 hhcurveto
            return
          </CharString>
          <CharString index="193">
            220 hlineto
            38 212 rlineto
            -220 hlineto
            return
          </CharString>
          <CharString index="194">
            -399 342 callgsubr
            399 return
          </CharString>
          <CharString index="195">
            46 0 302 -192 610 hstemhm
            22 644 hintmask 10100000
            315 hmoveto
            224 hlineto
            hintmask 01100000
            20 110 rlineto
            72 hlineto
            hintmask 10100000
            34 192 rlineto
            -72 hlineto
            hintmask 01100000
            73 418 rlineto
            -239 hlineto
            -373 -425 -32 -185 rlineto
            313 hlineto
            hintmask 10100000
            -56 192 rmoveto
            137 165 421 callgsubr
          </CharString>
          <CharString index="196">
            84 hlineto
            34 189 rlineto
            -53 hlineto
            -29 -10 12 26 4 hvcurveto
            27 152 rlineto
            92 hlineto
            33 185 rlineto
            -92 hlineto
            return
          </CharString>
          <CharString index="197">
            -107 callgsubr
            317 hlineto
            -9 -53 -171 -8 -113 -92 -25 -148 rlinecurve
            return
          </CharString>
          <CharString index="198">
            178 callsubr
            -62 rlineto
            -563 38 callsubr
            271 callgsubr
            85 hlineto
            -6 -15 -4 -16 -3 -17 rrcurveto
            return
          </CharString>
          <CharString index="199">
            266 -19 callgsubr
            return
          </CharString>
          <CharString index="200">
            -45 callgsubr
            108 -20 0 -54 96 hvcurveto
            return
          </CharString>
          <CharString index="201">
            123 190 callgsubr
            326 -96 callsubr
            return
          </CharString>
          <CharString index="202">
            vstem
            492 callsubr
            return
          </CharString>
          <CharString index="203">
            -148 -28 81 -117 166 hhcurveto
            return
          </CharString>
          <CharString index="204">
            -82 -65 -48 -128 -45 hvcurveto
            endchar
          </CharString>
          <CharString index="205">
            131 callsubr
            239 -233 return
          </CharString>
          <CharString index="206">
            208 -70 callsubr
            98 hlineto
            return
          </CharString>
          <CharString index="207">
            212 callsubr
            436 472 callsubr
            -214 hlineto
            95 540 rlineto
            return
          </CharString>
          <CharString index="208">
            122 callsubr
            hstemhm
            return
          </CharString>
          <CharString index="209">
            391 -94 callgsubr
            return
          </CharString>
          <CharString index="210">
            115 callsubr
            32 -23 -41 19 -59 hhcurveto
            -137 -90 -98 -137 -24 hvcurveto
            -16 -91 31 -74 65 -33 return
          </CharString>
          <CharString index="211">
            -85 callgsubr
            46 8 35 30 51 hhcurveto
            51 24 -28 -49 11 hvcurveto
            return
          </CharString>
          <CharString index="212">
            39 0 178 -161 -21 568 -20 return
          </CharString>
          <CharString index="213">
            320 callgsubr
            407 return
          </CharString>
          <CharString index="214">
            231 493 rmoveto
            71 callsubr
            return
          </CharString>
          <CharString index="215">
            181 534 callsubr
            32 138 -138 348 -94 callgsubr
            return
          </CharString>
          <CharString index="216">
            29 163 rlineto
            -35 hlineto
            -46 -10 24 34 6 hvcurveto
            3 19 rlineto
            return
          </CharString>
          <CharString index="217">
            169 80 12 callsubr
            return
          </CharString>
          <CharString index="218">
            232 -86 callsubr
            return
          </CharString>
          <CharString index="219">
            -80 -14 -54 -63 return
          </CharString>
          <CharString index="220">
            rlineto
            222 hlineto
            return
          </CharString>
          <CharString index="221">
            232 -106 callgsubr
            return
          </CharString>
          <CharString index="222">
            -19 -109 rlineto
            return
          </CharString>
          <CharString index="223">
            249 -228 -21 95 154 107 153 62 -3 callgsubr
            35 204 177 177 return
          </CharString>
          <CharString index="224">
            41 11 -31 -31 -5 hvcurveto
            return
          </CharString>
          <CharString index="225">
            -77 callgsubr
            338 271 rmoveto
            -105 callgsubr
            -905 -70 callgsubr
            return
          </CharString>
          <CharString index="226">
            -4 callgsubr
            0 callgsubr
            return
          </CharString>
          <CharString index="227">
            106 callsubr
            -94 callgsubr
            return
          </CharString>
          <CharString index="228">
            257 -188 148 -148 188 return
          </CharString>
          <CharString index="229">
            331 callsubr
            221 194 callgsubr
            return
          </CharString>
          <CharString index="230">
            356 -94 callgsubr
            return
          </CharString>
          <CharString index="231">
            -137 -1 95 -86 146 hhcurveto
            74 59 21 36 45 hvcurveto
            return
          </CharString>
          <CharString index="232">
            535 callgsubr
            99 197 rlineto
            endchar
          </CharString>
          <CharString index="233">
            -142 -25 132 -30 71 hhcurveto
            return
          </CharString>
          <CharString index="234">
            -5 -33 rlineto
            -19 -4 -11 -16 -18 hhcurveto
            -20 -4 16 19 4 hvcurveto
            13 77 182 10 65 120 25 139 rlinecurve
            4 26 rlineto
            return
          </CharString>
          <CharString index="235">
            -28 callgsubr
            -727 -107 callgsubr
            135 235 callgsubr
            return
          </CharString>
          <CharString index="236">
            170 295 rlineto
            -220 hlineto
            -96 -295 rlineto
            return
          </CharString>
          <CharString index="237">
            51 rmoveto
            -105 callgsubr
            return
          </CharString>
          <CharString index="238">
            174 -174 return
          </CharString>
          <CharString index="239">
            592 32 callgsubr
            return
          </CharString>
          <CharString index="240">
            -23 -129 rlineto
            -25 -4 -9 -31 -29 hhcurveto
            -26 -4 22 34 6 hvcurveto
            return
          </CharString>
          <CharString index="241">
            33 18 -24 450 callsubr
            return
          </CharString>
          <CharString index="242">
            rmoveto
            62 callgsubr
            return
          </CharString>
          <CharString index="243">
            22 5 13 14 18 hhcurveto
            return
          </CharString>
          <CharString index="244">
            178 -178 return
          </CharString>
          <CharString index="245">
            304 callsubr
            16 -18 -91 44 hvcurveto
            -86 -12 callgsubr
            return
          </CharString>
          <CharString index="246">
            210 -210 432 -395 173 53 169 return
          </CharString>
          <CharString index="247">
            hstemhm
            14 216 -216 589 return
          </CharString>
          <CharString index="248">
            hlineto
            hintmask 00100110
            -28 -156 -75 callgsubr
            hintmask 01000110
            149 callsubr
            hintmask 00010110
            72 callgsubr
            hintmask 00001110
            9 callgsubr
            return
          </CharString>
          <CharString index="249">
            311 callgsubr
            125 callgsubr
            hintmask 11010000
            59 callsubr
            418 callsubr
            return
          </CharString>
          <CharString index="250">
            56 callsubr
            104 return
          </CharString>
          <CharString index="251">
            222 hlineto
            100 564 124 callgsubr
            return
          </CharString>
          <CharString index="252">
            rmoveto
            207 callgsubr
            16 callsubr
            return
          </CharString>
          <CharString index="253">
            -329 rmoveto
            -99 callgsubr
            return
          </CharString>
          <CharString index="254">
            315 callsubr
            45 262 callgsubr
            123 callsubr
            0 return
          </CharString>
          <CharString index="255">
            -21 -120 -97 callsubr
            return
          </CharString>
          <CharString index="256">
            236 callsubr
            -28 -155 rlineto
            return
          </CharString>
          <CharString index="257">
            130 -7 207 315 205 return
          </CharString>
          <CharString index="258">
            -2 -12 -1 -14 1 -10 rrcurveto
            return
          </CharString>
          <CharString index="259">
            165 -101 171 49 471 callgsubr
            56 199 802 210 hintmask 0000111110000000
            333 291 rmoveto
            -64 -22 42 62 11 hvcurveto
            8 47 150 -101 rlineto
            -29 -17 -26 -21 -40 hhcurveto
            461 280 rmoveto
            return
          </CharString>
          <CharString index="260">
            481 -476 176 -101 419 callsubr
            -513 -28 callsubr
            -432 173 -148 163 callsubr
            -209 845 -510 510 return
          </CharString>
          <CharString index="261">
            -14 callgsubr
            endchar
          </CharString>
          <CharString index="262">
            -62 -11 41 -50 63 hhcurveto
            -15 callgsubr
            return
          </CharString>
          <CharString index="263">
            80 395 callgsubr
            return
          </CharString>
          <CharString index="264">
            238 callgsubr
            hstemhm
            return
          </CharString>
          <CharString index="265">
            33 12 17 14 24 hhcurveto
            return
          </CharString>
          <CharString index="266">
            128 190 callgsubr
            377 -96 callsubr
            return
          </CharString>
          <CharString index="267">
            rmoveto
            42 7 36 34 49 hhcurveto
            47 25 -31 -44 -8 hvcurveto
            -44 -8 -35 -33 -47 hhcurveto
            -49 -24 34 42 7 hvcurveto
            return
          </CharString>
          <CharString index="268">
            rmoveto
            78 57 48 61 11 hvcurveto
            62 11 -41 49 -78 hhcurveto
            -79 -57 438 callsubr
            return
          </CharString>
          <CharString index="269">
            rlineto
            204 hlineto
            338 callgsubr
            return
          </CharString>
          <CharString index="270">
            120 callsubr
            20 209 return
          </CharString>
          <CharString index="271">
            rmoveto
            -174 hlineto
            hintmask 1000001010010000
            -50 -9 -32 -34 -62 hhcurveto
            hintmask 1000001001010000
            172 callgsubr
            hintmask 0000100101001000
            578 callgsubr
          </CharString>
          <CharString index="272">
            -15 -84 rlineto
            -75 180 rmoveto
            -40 -20 17 20 -6 hvcurveto
            73 18 45 51 10 56 rrcurveto
            97 17 -58 70 -161 hhcurveto
            -255 hlineto
            11 62 rlineto
            559 hlineto
            -50 -285 rlineto
            -75 -17 -57 -31 -51 hhcurveto
            return
          </CharString>
          <CharString index="273">
            -8 -151 117 rcurveline
            13 22 25 7 26 hhcurveto
            19 11 -1 -3 16 hvcurveto
            23 132 rlineto
            6 -23 -25 1 -19 hhcurveto
            -154 -124 -85 -144 -25 hvcurveto
            -161 -28 113 -98 141 hhcurveto
            return
          </CharString>
          <CharString index="274">
            119 callsubr
            hintmask 0000011111000000
            322 callsubr
          </CharString>
          <CharString index="275">
            241 callsubr
            -45 13 -39 34 -27 -58 -38 -42 -60 -15 -82 rrcurveto
            return
          </CharString>
          <CharString index="276">
            554 callgsubr
            2 8 2 8 3 8 148 -115 rcurveline
            -9 -18 -21 -6 -23 hhcurveto
            return
          </CharString>
          <CharString index="277">
            rmoveto
            101 hlineto
            -12 -69 -44 -4 -37 -15 -28 -26 347 callgsubr
            return
          </CharString>
          <CharString index="278">
            39 7 16 68 70 hhcurveto
            66 -8 -68 -39 -7 hvcurveto
            -6 -35 rlineto
            -83 hlineto
            return
          </CharString>
          <CharString index="279">
            -17 -24 552 callsubr
            -137 -18 93 -72 130 hhcurveto
            return
          </CharString>
          <CharString index="280">
            -32 -10 -18 -15 -24 -40 -31 46 -65 hhcurveto
            return
          </CharString>
          <CharString index="281">
            439 callgsubr
            28 24 34 hhcurveto
            33 return
          </CharString>
          <CharString index="282">
            114 156 return
          </CharString>
          <CharString index="283">
            -9 -5 4 16 3 hvcurveto
            -172 hlineto
            -79 -7 35 -54 149 hhcurveto
            105 73 35 68 12 hvcurveto
            7 41 -17 26 -60 14 1 4 rcurveline
            51 8 30 24 7 42 rrcurveto
            63 11 -52 43 -107 hhcurveto
            return
          </CharString>
          <CharString index="284">
            rlineto
            -221 hlineto
            return
          </CharString>
          <CharString index="285">
            3 callgsubr
            -1 10 1 9 2 9 rrcurveto
            22 4 14 17 20 503 callsubr
            return
          </CharString>
          <CharString index="286">
            -89 121 callsubr
            -168 return
          </CharString>
          <CharString index="287">
            129 hhcurveto
            29 hlineto
            -58 callsubr
            return
          </CharString>
          <CharString index="288">
            67 callsubr
            77 hlineto
            -101 -571 rlineto
            return
          </CharString>
          <CharString index="289">
            -280 44 callsubr
            return
          </CharString>
          <CharString index="290">
            35 7 30 16 28 hhcurveto
            46 hlineto
            return
          </CharString>
          <CharString index="291">
            -83 -60 -37 -56 -36 hvcurveto
            -3 hlineto
            return
          </CharString>
          <CharString index="292">
            hlineto
            111 callgsubr
            return
          </CharString>
          <CharString index="293">
            21 282 callsubr
            return
          </CharString>
          <CharString index="294">
            -64 hhcurveto
            -63 -59 return
          </CharString>
          <CharString index="295">
            421 callsubr
            192 callsubr
            -111 152 111 151 -151 6 callgsubr
            25 1372 -1361 203 170 return
          </CharString>
          <CharString index="296">
            -41 -17 27 33 2 hvcurveto
            -190 hlineto
            -52 -294 rlineto
            198 hlineto
            return
          </CharString>
          <CharString index="297">
            -39 -7 -24 -23 -65 hhcurveto
            return
          </CharString>
          <CharString index="298">
            -3 callgsubr
            22 203 return
          </CharString>
          <CharString index="299">
            203 440 callgsubr
            return
          </CharString>
          <CharString index="300">
            rmoveto
            9 51 rlineto
            return
          </CharString>
          <CharString index="301">
            262 -262 303 28 142 -86 202 -71 71 -71 150 callgsubr
            5 502 -456 69 callgsubr
            return
          </CharString>
          <CharString index="302">
            -594 5 238 callsubr
            -1 -1 -2 vvcurveto
            return
          </CharString>
          <CharString index="303">
            -20 -31 7 34 3 hvcurveto
            -203 hlineto
            -9 -71 31 -51 53 -32 -137 -149 248 callsubr
            143 57 29 34 50 12 66 rlinecurve
            return
          </CharString>
          <CharString index="304">
            57 callsubr
            270 9 44 26 25 37 1 rlinecurve
            38 8 -27 -22 2 hvcurveto
            return
          </CharString>
          <CharString index="305">
            10 0 7 2 9 vhcurveto
            20 4 13 18 23 549 callsubr
            -10 -55 rlineto
            -46 hlineto
            -133 564 callsubr
            83 -82 143 hhcurveto
            return
          </CharString>
          <CharString index="306">
            264 hlineto
            -196 369 305 339 rlineto
            -251 hlineto
            -256 -298 53 298 rlineto
            -222 175 callgsubr
            54 308 rlineto
            endchar
          </CharString>
          <CharString index="307">
            173 -119 171 19 122 callgsubr
            -128 277 callsubr
            109 200 197 254 callgsubr
            return
          </CharString>
          <CharString index="308">
            255 -255 869 -719 -21 179 108 callsubr
            22 196 270 callgsubr
            return
          </CharString>
          <CharString index="309">
            rlineto
            53 hlineto
            98 55 -55 -103 -18 hvcurveto
            -103 -18 -75 -55 -98 hhcurveto
            return
          </CharString>
          <CharString index="310">
            -151 181 callgsubr
            return
          </CharString>
          <CharString index="311">
            -145 -25 81 -114 142 hhcurveto
            58 53 15 31 37 hvcurveto
            return
          </CharString>
          <CharString index="312">
            340 callsubr
            42 39 6 10 35 hvcurveto
            return
          </CharString>
          <CharString index="313">
            216 callgsubr
            43 7 return
          </CharString>
          <CharString index="314">
            -132 -24 120 -64 155 hhcurveto
            return
          </CharString>
          <CharString index="315">
            61 -7 210 505 -20 return
          </CharString>
          <CharString index="316">
            hhcurveto
            53 43 15 26 34 hvcurveto
            return
          </CharString>
          <CharString index="317">
            283 callgsubr
            178 hstemhm
            return
          </CharString>
          <CharString index="318">
            hlineto
            212 callsubr
            return
          </CharString>
          <CharString index="319">
            -125 -708 rlineto
            return
          </CharString>
          <CharString index="320">
            -3 -17 rlineto
            -27 -5 -18 -21 -28 hhcurveto
            -38 -3 28 26 5 hvcurveto
            8 45 rlineto
            7 hlineto
            158 144 74 176 31 hvcurveto
            28 149 -97 85 -146 -3 rrcurveto
            return
          </CharString>
          <CharString index="321">
            341 callgsubr
            408 callgsubr
            return
          </CharString>
          <CharString index="322">
            1 rrcurveto
            -56 hlineto
            -29 -163 rlineto
            59 hlineto
            return
          </CharString>
          <CharString index="323">
            -79 callsubr
            76 112 callgsubr
            return
          </CharString>
          <CharString index="324">
            hvcurveto
            hintmask 11010000
            -186 22 rmoveto
            hintmask 10110000
            40 7 -25 33 -43 hhcurveto
            -39 -39 -33 -40 -7 hvcurveto
            hintmask 11010000
            -41 -7 27 -32 39 hhcurveto
            43 37 32 41 7 hvcurveto
            endchar
          </CharString>
          <CharString index="325">
            175 -172 576 callsubr
            -141 152 23 170 -82 151 65 283 callgsubr
            177 hstemhm
            36 203 170 return
          </CharString>
          <CharString index="326">
            226 callsubr
            28 142 -86 202 -71 71 -71 150 callgsubr
            51 69 callgsubr
            return
          </CharString>
          <CharString index="327">
            rmoveto
            110 175 rlineto
            -201 hlineto
            -108 -175 46 -175 rlineto
            201 hlineto
            return
          </CharString>
          <CharString index="328">
            298 callsubr
            -161 164 callgsubr
            return
          </CharString>
          <CharString index="329">
            163 -163 41 callsubr
            return
          </CharString>
          <CharString index="330">
            268 callsubr
            58 169 hstemhm
            return
          </CharString>
          <CharString index="331">
            -148 -11 96 -94 161 hhcurveto
            70 58 20 34 44 hvcurveto
            return
          </CharString>
          <CharString index="332">
            -21 -8 8 14 2 hvcurveto
            return
          </CharString>
          <CharString index="333">
            152 -152 193 return
          </CharString>
          <CharString index="334">
            274 callgsubr
            hintmask 00001001
            5 28 rlineto
            return
          </CharString>
          <CharString index="335">
            366 -20 rmoveto
            235 200 36 207 -505 -407 rlineto
            538 591 rmoveto
            -105 callgsubr
            -645 -107 callgsubr
            303 hlineto
            return
          </CharString>
          <CharString index="336">
            121 callsubr
            -168 339 -152 147 callsubr
            return
          </CharString>
          <CharString index="337">
            -27 callgsubr
            42 7 36 34 49 hhcurveto
            37 26 -22 -31 3 hvcurveto
            -4 0 -5 -6 vvcurveto
            -1 0 -3 -1 hvcurveto
            -52 -9 -38 -28 -44 hhcurveto
            return
          </CharString>
          <CharString index="338">
            55 callsubr
            308 callsubr
            return
          </CharString>
          <CharString index="339">
            -39 callgsubr
            101 571 rlineto
            76 hlineto
            return
          </CharString>
          <CharString index="340">
            374 callsubr
            -2 -12 rlineto
            -51 -9 return
          </CharString>
          <CharString index="341">
            -107 callgsubr
            283 hlineto
            -4 -26 rlineto
            return
          </CharString>
          <CharString index="342">
            -54 callgsubr
            232 return
          </CharString>
          <CharString index="343">
            28 156 341 callsubr
            return
          </CharString>
          <CharString index="344">
            47 218 285 217 return
          </CharString>
          <CharString index="345">
            -70 callsubr
            77 hlineto
            -2 return
          </CharString>
          <CharString index="346">
            -259 21 -21 500 208 hstem
            48 376 vstem
            66 hmoveto
            233 hlineto
            407 callsubr
            -339 hlineto
            -37 -208 rlineto
            106 hlineto
            endchar
          </CharString>
          <CharString index="347">
            42 235 rlineto
            endchar
          </CharString>
          <CharString index="348">
            38 callgsubr
            309 callgsubr
            return
          </CharString>
          <CharString index="349">
            488 callgsubr
            48 81 callgsubr
            -95 143 callgsubr
            21 202 315 137 callgsubr
            return
          </CharString>
          <CharString index="350">
            632 -49 rmoveto
            -31 -14 23 44 8 hvcurveto
            1 6 rlineto
            84 15 -39 98 -132 hhcurveto
            -56 -49 -20 -34 -35 hvcurveto
            20 112 rlineto
            680 hlineto
            return
          </CharString>
          <CharString index="351">
            rmoveto
            233 callsubr
            -24 -23 -35 hhcurveto
            -14 -79 rlineto
            114 65 80 97 17 hvcurveto
            8 42 0 46 -10 46 rrcurveto
            return
          </CharString>
          <CharString index="352">
            173 hstemhm
            38 483 -442 268 callgsubr
            return
          </CharString>
          <CharString index="353">
            106 callsubr
            -169 210 callsubr
            20 209 return
          </CharString>
          <CharString index="354">
            -42 callsubr
            241 -241 447 416 callsubr
            return
          </CharString>
          <CharString index="355">
            rcurveline
            149 callgsubr
            -81 return
          </CharString>
          <CharString index="356">
            81 callsubr
            97 -3 callgsubr
            36 203 return
          </CharString>
          <CharString index="357">
            -31 -175 127 callgsubr
            43 245 rlineto
            62 11 return
          </CharString>
          <CharString index="358">
            -155 -154 513 callgsubr
            148 163 rlineto
            return
          </CharString>
          <CharString index="359">
            58 callgsubr
            92 hlineto
            return
          </CharString>
          <CharString index="360">
            122 22 -87 64 -119 hhcurveto
            return
          </CharString>
          <CharString index="361">
            -5 20 22 -2 22 hhcurveto
            return
          </CharString>
          <CharString index="362">
            26 144 7 43 rlineto
            return
          </CharString>
          <CharString index="363">
            446 537 rmoveto
            return
          </CharString>
          <CharString index="364">
            -11 -61 rlineto
            -15 hlineto
            return
          </CharString>
          <CharString index="365">
            -72 -33 38 44 return
          </CharString>
          <CharString index="366">
            167 -167 203 58 200 -160 160 44 47 callsubr
            14 200 -126 195 return
          </CharString>
          <CharString index="367">
            158 -158 193 48 253 -152 152 45 47 callsubr
            6 517 -517 664 return
          </CharString>
          <CharString index="368">
            53 48 41 51 9 hvcurveto
            endchar
          </CharString>
          <CharString index="369">
            rmoveto
            -61 -31 24 33 -11 hvcurveto
            110 30 50 110 13 73 436 callsubr
            112 callsubr
            -91 hhcurveto
            return
          </CharString>
          <CharString index="370">
            421 callsubr
            111 callsubr
            -140 152 111 404 callsubr
            1481 -1470 203 return
          </CharString>
          <CharString index="371">
            -90 callsubr
            87 hlineto
            return
          </CharString>
          <CharString index="372">
            127 -205 rmoveto
            -62 -11 -42 -33 -46 hhcurveto
            -46 -30 33 62 11 hvcurveto
            62 11 42 33 46 hhcurveto
            46 30 -33 -62 -11 hvcurveto
            endchar
          </CharString>
          <CharString index="373">
            -157 -27 113 -85 121 hhcurveto
            118 106 66 130 21 hvcurveto
            return
          </CharString>
          <CharString index="374">
            -54 -46 -17 -31 -33 hvcurveto
            20 116 rlineto
            return
          </CharString>
          <CharString index="375">
            235 -235 462 -400 173 return
          </CharString>
          <CharString index="376">
            356 callgsubr
            -135 hlineto
            return
          </CharString>
          <CharString index="377">
            571 198 callgsubr
            return
          </CharString>
          <CharString index="378">
            100 21 118 rrcurveto
            return
          </CharString>
          <CharString index="379">
            -129 rmoveto
            -46 -22 31 39 7 hvcurveto
            38 7 32 33 51 hhcurveto
            24 23 1 3 22 hvcurveto
            -15 -82 rlineto
            -38 -11 -32 -25 -40 hhcurveto
            return
          </CharString>
          <CharString index="380">
            -105 callgsubr
            -76 hlineto
            4 25 rlineto
            163 28 -41 125 -204 hhcurveto
            -200 -94 -119 -169 -29 hvcurveto
            -12 -69 rlineto
            return
          </CharString>
          <CharString index="381">
            -280 413 295 hstem
            87 316 vstem
            233 413 rmoveto
            487 callgsubr
          </CharString>
          <CharString index="382">
            57 10 -37 45 -57 hhcurveto
            -56 -53 -45 -57 -10 hvcurveto
            return
          </CharString>
          <CharString index="383">
            -76 -130 -23 hvcurveto
            -7 -39 2 -33 10 -29 rrcurveto
            return
          </CharString>
          <CharString index="384">
            159 68 -3 callgsubr
            return
          </CharString>
          <CharString index="385">
            -94 callgsubr
            24 return
          </CharString>
          <CharString index="386">
            -15 -83 rlineto
            -120 hlineto
            return
          </CharString>
          <CharString index="387">
            214 319 callsubr
            return
          </CharString>
          <CharString index="388">
            -16 -90 rlineto
            -266 hlineto
            return
          </CharString>
          <CharString index="389">
            -21 708 -20 return
          </CharString>
          <CharString index="390">
            rlineto
            295 hlineto
            226 169 154 202 36 hvcurveto
            204 36 -116 148 -226 hhcurveto
            -163 -510 rmoveto
            return
          </CharString>
          <CharString index="391">
            -44 -8 -18 -23 -31 hhcurveto
            647 313 rmoveto
            -105 callgsubr
            -1580 -21 callgsubr
            return
          </CharString>
          <CharString index="392">
            rmoveto
            -46 -1 -22 31 7 37 7 37 28 29 45 5 32 4 29 11 22 18 -17 -100 rcurveline
            -7 -41 -34 -29 -44 -1 rrcurveto
            return
          </CharString>
          <CharString index="393">
            -25 -17 12 29 4 hvcurveto
            -183 hlineto
            -45 -258 rlineto
            193 hlineto
            return
          </CharString>
          <CharString index="394">
            472 callgsubr
            11 187 175 callsubr
            383 194 return
          </CharString>
          <CharString index="395">
            -27 -30 -41 hhcurveto
            -39 -19 28 39 7 hvcurveto
            43 8 33 27 55 hhcurveto
            return
          </CharString>
          <CharString index="396">
            176 -176 return
          </CharString>
          <CharString index="397">
            255 225 rmoveto
            -29 -18 17 28 5 hvcurveto
            31 6 28 17 34 hhcurveto
            46 hlineto
            -6 -32 rlineto
            -33 -6 -19 -28 -41 hhcurveto
            return
          </CharString>
          <CharString index="398">
            749 270 callsubr
            -723 67 callsubr
            679 -247 rmoveto
            29 164 rlineto
            -377 hlineto
            return
          </CharString>
          <CharString index="399">
            -100 callgsubr
            517 callgsubr
            return
          </CharString>
          <CharString index="400">
            445 callsubr
            -74 -13 -56 -40 -82 hhcurveto
            -42 -43 7 36 4 hvcurveto
            return
          </CharString>
          <CharString index="401">
            -107 callgsubr
            335 hlineto
            return
          </CharString>
          <CharString index="402">
            -169 191 callsubr
            return
          </CharString>
          <CharString index="403">
            hlineto
            -44 callgsubr
            endchar
          </CharString>
          <CharString index="404">
            14 -47 -34 -4 hvcurveto
            -2 -10 rlineto
            -96 callgsubr
            return
          </CharString>
          <CharString index="405">
            rmoveto
            -105 callgsubr
            -665 90 callsubr
            return
          </CharString>
          <CharString index="406">
            -53 -9 -42 -36 -59 hhcurveto
            -57 -27 34 48 9 hvcurveto
            56 10 51 30 54 hhcurveto
            409 hlineto
            22 17 -8 -22 -4 hvcurveto
            return
          </CharString>
          <CharString index="407">
            -7 -147 113 rcurveline
            11 19 21 6 23 hhcurveto
            458 callsubr
            return
          </CharString>
          <CharString index="408">
            rmoveto
            -62 -11 40 -49 78 hhcurveto
            79 58 49 62 11 hvcurveto
            61 11 -41 48 -79 hhcurveto
            -78 -57 -48 -61 -11 hvcurveto
            endchar
          </CharString>
          <CharString index="409">
            65 143 58 394 callgsubr
            return
          </CharString>
          <CharString index="410">
            hlineto
            96 callgsubr
            return
          </CharString>
          <CharString index="411">
            215 callsubr
            82 return
          </CharString>
          <CharString index="412">
            -107 callgsubr
            214 hlineto
            -8 -48 rlineto
            return
          </CharString>
          <CharString index="413">
            6 36 rrcurveto
            183 callsubr
            return
          </CharString>
          <CharString index="414">
            137 24 -32 116 -172 hhcurveto
            return
          </CharString>
          <CharString index="415">
            -175 -28 136 -72 129 hhcurveto
            return
          </CharString>
          <CharString index="416">
            -44 136 callgsubr
            return
          </CharString>
          <CharString index="417">
            59 336 rlineto
            -168 hlineto
            return
          </CharString>
          <CharString index="418">
            -24 226 callsubr
            return
          </CharString>
          <CharString index="419">
            rmoveto
            377 callsubr
            return
          </CharString>
          <CharString index="420">
            -68 269 -269 336 return
          </CharString>
          <CharString index="421">
            -3 callgsubr
            57 198 return
          </CharString>
          <CharString index="422">
            152 -142 142 return
          </CharString>
          <CharString index="423">
            848 hmoveto
            -78 callsubr
            -999 305 callsubr
            return
          </CharString>
          <CharString index="424">
            101 rmoveto
            -59 callgsubr
            return
          </CharString>
          <CharString index="425">
            69 12 53 35 62 hhcurveto
            28 26 -9 -15 19 hvcurveto
            -431 -317 -1 -8 rlineto
            267 hlineto
            153 125 return
          </CharString>
          <CharString index="426">
            -171 171 return
          </CharString>
          <CharString index="427">
            919 270 callsubr
            -894 67 callsubr
            622 hlineto
            -14 -83 rlineto
            -276 hlineto
            return
          </CharString>
          <CharString index="428">
            178 callsubr
            -63 rlineto
            return
          </CharString>
          <CharString index="429">
            252 callsubr
            hintmask 1000001111000000
            -57 -322 -99 callsubr
          </CharString>
          <CharString index="430">
            -92 hlineto
            -37 -42 9 53 11 313 callgsubr
            return
          </CharString>
          <CharString index="431">
            28 54 2 hvcurveto
            399 callgsubr
            12 69 rcurveline
            return
          </CharString>
          <CharString index="432">
            264 -262 195 -195 264 -197 195 return
          </CharString>
          <CharString index="433">
            351 callsubr
            -50 -14 -71 -43 -15 -86 rrcurveto
            return
          </CharString>
          <CharString index="434">
            52 hlineto
            26 32 -15 -42 509 callgsubr
            return
          </CharString>
          <CharString index="435">
            508 callsubr
            -28 -163 rlineto
            59 hlineto
            return
          </CharString>
          <CharString index="436">
            615 571 rmoveto
            return
          </CharString>
          <CharString index="437">
            -7 -40 rlineto
            -48 hlineto
            return
          </CharString>
          <CharString index="438">
            212 -212 return
          </CharString>
          <CharString index="439">
            291 174 rmoveto
            -62 -47 39 65 11 hvcurveto
            2 9 2 8 3 8 147 -114 rcurveline
            -10 -17 return
          </CharString>
          <CharString index="440">
            266 callgsubr
            -28 80 -117 177 hhcurveto
            return
          </CharString>
          <CharString index="441">
            -19 -11 -24 -16 -29 hhcurveto
            -38 -33 28 59 11 hvcurveto
            62 12 36 35 46 hhcurveto
            29 15 -12 -10 8 hvcurveto
            return
          </CharString>
          <CharString index="442">
            rmoveto
            -23 445 callgsubr
            -34 -6 -19 -24 -37 hhcurveto
            return
          </CharString>
          <CharString index="443">
            -10 -9 0 -1 -10 hvcurveto
            -3 5 -1 6 1 6 rrcurveto
            20 3 17 8 19 hhcurveto
            167 hlineto
            endchar
          </CharString>
          <CharString index="444">
            200 -200 596 -556 160 return
          </CharString>
          <CharString index="445">
            171 -155 342 callgsubr
            436 return
          </CharString>
          <CharString index="446">
            307 -251 164 return
          </CharString>
          <CharString index="447">
            -74 -13 52 -46 101 hhcurveto
            return
          </CharString>
          <CharString index="448">
            rlineto
            -205 hlineto
            return
          </CharString>
          <CharString index="449">
            rmoveto
            -18 callgsubr
            return
          </CharString>
          <CharString index="450">
            -175 -28 136 -72 180 callsubr
            34 44 8 hvcurveto
            return
          </CharString>
          <CharString index="451">
            339 callsubr
            -84 171 33 471 callgsubr
            55 880 584 callsubr
            return
          </CharString>
          <CharString index="452">
            20 4 5 8 10 hhcurveto
            9 2 -7 -10 -2 hvcurveto
            -19 -3 -9 -7 -19 hhcurveto
            -21 hlineto
            -9 -54 rlineto
            return
          </CharString>
          <CharString index="453">
            54 -21 -53 40 -89 hhcurveto
            -95 -104 -42 -111 -51 hvcurveto
            return
          </CharString>
          <CharString index="454">
            62 352 rlineto
            -230 hlineto
            -22 -127 rlineto
            66 hlineto
            return
          </CharString>
          <CharString index="455">
            -89 23 77 -59 126 hhcurveto
            7 9 0 1 14 hvcurveto
            return
          </CharString>
          <CharString index="456">
            -94 callgsubr
            11 193 return
          </CharString>
          <CharString index="457">
            -149 -102 -107 -136 -6 hvcurveto
            return
          </CharString>
          <CharString index="458">
            51 -58 56 -21 -1 -4 rcurveline
            return
          </CharString>
          <CharString index="459">
            277 callsubr
            24 return
          </CharString>
          <CharString index="460">
            0 280 callsubr
            return
          </CharString>
          <CharString index="461">
            hlineto
            -133 -125 return
          </CharString>
          <CharString index="462">
            -212 212 return
          </CharString>
          <CharString index="463">
            -172 172 return
          </CharString>
          <CharString index="464">
            -38 callgsubr
            hintmask 10011100
            148 callsubr
            endchar
          </CharString>
          <CharString index="465">
            0 203 -203 377 callgsubr
            -119 162 -160 171 100 174 return
          </CharString>
          <CharString index="466">
            -52 callgsubr
            -400 -42 callsubr
            400 return
          </CharString>
          <CharString index="467">
            -38 callgsubr
            hintmask 10001110
            148 callsubr
            endchar
          </CharString>
          <CharString index="468">
            8 219 283 -283 513 -441 160 -120 171 61 -3 callgsubr
            5 return
          </CharString>
          <CharString index="469">
            135 callgsubr
            endchar
          </CharString>
          <CharString index="470">
            rlineto
            218 hlineto
            return
          </CharString>
          <CharString index="471">
            516 callsubr
            25 23 34 hhcurveto
            14 78 rlineto
            -113 return
          </CharString>
          <CharString index="472">
            132 47 165 -131 131 27 125 -125 331 -94 callgsubr
            return
          </CharString>
          <CharString index="473">
            -81 385 callsubr
            return
          </CharString>
          <CharString index="474">
            -191 21 508 callgsubr
            0 return
          </CharString>
          <CharString index="475">
            rmoveto
            -98 238 rlineto
            -202 hlineto
            93 -238 rlineto
            return
          </CharString>
          <CharString index="476">
            56 10 31 33 44 hhcurveto
            117 callsubr
            return
          </CharString>
          <CharString index="477">
            194 callgsubr
            -164 173 hstemhm
            return
          </CharString>
          <CharString index="478">
            212 -154 355 callgsubr
            return
          </CharString>
          <CharString index="479">
            -210 -70 105 -167 244 hhcurveto
            return
          </CharString>
          <CharString index="480">
            -6 -31 -8 -41 -12 -39 -36 -24 rlinecurve
            return
          </CharString>
          <CharString index="481">
            -26 -146 rlineto
            72 hlineto
            return
          </CharString>
          <CharString index="482">
            95 17 -77 27 -48 hhcurveto
            return
          </CharString>
          <CharString index="483">
            hlineto
            -131 -740 rlineto
            return
          </CharString>
          <CharString index="484">
            258 callsubr
            3 hvcurveto
            return
          </CharString>
          <CharString index="485">
            hlineto
            -11 -61 rlineto
            -16 hlineto
            return
          </CharString>
          <CharString index="486">
            342 callgsubr
            704 return
          </CharString>
          <CharString index="487">
            -3 callgsubr
            24 return
          </CharString>
          <CharString index="488">
            116 104 76 188 62 hvcurveto
            -166 hlineto
            hintmask 0100010010000000
            -50 -16 -19 -19 -36 hhcurveto
            return
          </CharString>
          <CharString index="489">
            -75 -13 -41 -42 -97 hhcurveto
            -19 hlineto
            -19 -109 -31 -171 76 -102 150 -19 rlinecurve
            return
          </CharString>
          <CharString index="490">
            395 callsubr
            -202 159 -119 162 66 return
          </CharString>
          <CharString index="491">
            16 -25 -32 10 -38 hhcurveto
            -51 -44 -18 -31 -32 hvcurveto
            19 107 rlineto
            556 -571 rmoveto
            return
          </CharString>
          <CharString index="492">
            -89 258 -190 149 -149 190 28 142 45 144 43 169 return
          </CharString>
          <CharString index="493">
            47 -98 rlineto
            194 hlineto
            -102 179 rlineto
            -271 hlineto
            -165 -179 rlineto
            endchar
          </CharString>
          <CharString index="494">
            -157 -30 104 -105 151 hhcurveto
            140 99 70 123 27 hvcurveto
            -178 hlineto
            return
          </CharString>
          <CharString index="495">
            vstem
            206 740 rmoveto
            -130 -740 rlineto
            202 hlineto
            130 740 rlineto
            return
          </CharString>
          <CharString index="496">
            25 144 rlineto
            -23 hlineto
            -29 -29 12 35 6 hvcurveto
            38 7 39 12 31 hhcurveto
            88 return
          </CharString>
          <CharString index="497">
            -121 -22 69 -98 148 hhcurveto
            135 88 90 131 11 hvcurveto
            -173 hlineto
            return
          </CharString>
          <CharString index="498">
            147 105 80 144 24 hvcurveto
            -199 hlineto
            return
          </CharString>
          <CharString index="499">
            189 190 185 -185 321 hstemhm
            return
          </CharString>
          <CharString index="500">
            rmoveto
            -57 -16 13 callgsubr
            return
          </CharString>
          <CharString index="501">
            565 79 86 146 hstem
            200 118 return
          </CharString>
          <CharString index="502">
            -54 callgsubr
            203 return
          </CharString>
          <CharString index="503">
            550 callgsubr
            -145 169 return
          </CharString>
          <CharString index="504">
            -127 227 -100 100 -100 return
          </CharString>
          <CharString index="505">
            -162 172 58 169 return
          </CharString>
          <CharString index="506">
            0 255 callgsubr
            return
          </CharString>
          <CharString index="507">
            6 34 -2 28 -5 23 rrcurveto
            return
          </CharString>
          <CharString index="508">
            571 406 callgsubr
            return
          </CharString>
          <CharString index="509">
            rmoveto
            28 5 -19 22 -28 hhcurveto
            return
          </CharString>
          <CharString index="510">
            17 hvcurveto
            8 42 1 46 -10 return
          </CharString>
          <CharString index="511">
            151 65 -3 callgsubr
            25 return
          </CharString>
          <CharString index="512">
            21 488 callsubr
            return
          </CharString>
          <CharString index="513">
            -17 -100 rlineto
            -44 hlineto
            return
          </CharString>
          <CharString index="514">
            331 callgsubr
            rlineto
            return
          </CharString>
          <CharString index="515">
            -435 172 return
          </CharString>
          <CharString index="516">
            -2 27 20 0 21 hhcurveto
            38 14 -13 -23 -4 hvcurveto
            -20 -4 -16 -13 -25 hhcurveto
            return
          </CharString>
          <CharString index="517">
            137 callsubr
            163 callsubr
            return
          </CharString>
          <CharString index="518">
            30 14 27 7 17 hhcurveto
            36 15 -29 -36 -6 hvcurveto
            -38 -6 -26 -29 -36 hhcurveto
            return
          </CharString>
          <CharString index="519">
            -19 -110 -26 35 -43 19 -56 2 rlinecurve
            -108 5 -90 -63 -41 -98 rrcurveto
            return
          </CharString>
          <CharString index="520">
            -5 -25 rlineto
            -17 -3 -11 -15 -18 hhcurveto
            -20 -3 16 19 3 hvcurveto
            13 77 rlineto
            return
          </CharString>
          <CharString index="521">
            0 203 -167 172 -167 162 102 166 -116 162 return
          </CharString>
          <CharString index="522">
            130 23 -85 76 -134 hhcurveto
            return
          </CharString>
          <CharString index="523">
            133 387 callgsubr
            205 return
          </CharString>
          <CharString index="524">
            153 378 callgsubr
            return
          </CharString>
          <CharString index="525">
            48 26 -33 -54 -10 hvcurveto
            return
          </CharString>
          <CharString index="526">
            137 callsubr
            660 return
          </CharString>
          <CharString index="527">
            583 callgsubr
            -231 return
          </CharString>
          <CharString index="528">
            175 -166 return
          </CharString>
          <CharString index="529">
            hlineto
            -7 -39 rlineto
            return
          </CharString>
          <CharString index="530">
            166 -166 return
          </CharString>
          <CharString index="531">
            472 callgsubr
            21 202 606 194 hintmask 0100001010110000
            641 return
          </CharString>
          <CharString index="532">
            -138 -25 97 258 callgsubr
            108 112 354 callgsubr
            return
          </CharString>
          <CharString index="533">
            -74 129 95 30 57 64 17 89 rlinecurve
            106 18 -67 71 -110 hhcurveto
            return
          </CharString>
          <CharString index="534">
            vstem
            135 -107 490 callgsubr
            return
          </CharString>
          <CharString index="535">
            -20 68 -24 callgsubr
            return
          </CharString>
          <CharString index="536">
            -72 -176 -31 hvcurveto
            -159 -28 79 -100 175 hhcurveto
            7 12 0 1 return
          </CharString>
          <CharString index="537">
            151 callgsubr
            -130 -89 -74 -115 -32 hvcurveto
            return
          </CharString>
          <CharString index="538">
            169 80 68 callsubr
            return
          </CharString>
          <CharString index="539">
            -152 0 168 540 -20 hstem
            0 return
          </CharString>
          <CharString index="540">
            hlineto
            130 callgsubr
            return
          </CharString>
          <CharString index="541">
            -28 -156 -27 callsubr
            return
          </CharString>
          <CharString index="542">
            532 callgsubr
            -169 677 return
          </CharString>
          <CharString index="543">
            13 69 -83 callsubr
            return
          </CharString>
          <CharString index="544">
            214 -171 418 callgsubr
            return
          </CharString>
          <CharString index="545">
            -49 -62 -11 hvcurveto
            -61 -11 41 -48 79 hhcurveto
            return
          </CharString>
          <CharString index="546">
            hlineto
            31 177 rlineto
            return
          </CharString>
          <CharString index="547">
            214 -214 return
          </CharString>
          <CharString index="548">
            39 217 rlineto
            return
          </CharString>
          <CharString index="549">
            206 503 callgsubr
            29 169 rlineto
            -76 hlineto
            return
          </CharString>
          <CharString index="550">
            -128 -25 80 -106 158 hhcurveto
            162 83 101 133 23 hvcurveto
            return
          </CharString>
          <CharString index="551">
            194 hstem
            504 228 vstem
            420 708 rmoveto
            -295 hlineto
            return
          </CharString>
          <CharString index="552">
            10 callsubr
            rrcurveto
            return
          </CharString>
          <CharString index="553">
            132 23 -65 85 -130 hhcurveto
            -115 -101 -57 -125 -22 hvcurveto
            return
          </CharString>
          <CharString index="554">
            -332 203 -203 606 -559 156 141 175 return
          </CharString>
          <CharString index="555">
            32 6 -23 -42 -10 hvcurveto
            181 hlineto
            150 38 -61 76 -106 hhcurveto
            return
          </CharString>
          <CharString index="556">
            157 159 54 169 hstem
            22 199 165 195 vstem
            return
          </CharString>
          <CharString index="557">
            -32 -5 hvcurveto
            -33 return
          </CharString>
          <CharString index="558">
            hintmask 11011000
            492 callsubr
            return
          </CharString>
          <CharString index="559">
            136 callsubr
            27 callgsubr
            return
          </CharString>
          <CharString index="560">
            330 307 393 callsubr
            return
          </CharString>
          <CharString index="561">
            -135 -24 75 -108 180 hhcurveto
            82 66 31 48 48 hvcurveto
            return
          </CharString>
          <CharString index="562">
            -19 -3 -18 -9 -24 hhcurveto
            -69 hlineto
            -1 -7 -1 -6 -1 -6 rrcurveto
            return
          </CharString>
          <CharString index="563">
            -168 -30 97 -114 171 -38 callgsubr
            return
          </CharString>
          <CharString index="564">
            174 hmoveto
            -78 callsubr
            -87 hlineto
            return
          </CharString>
          <CharString index="565">
            -37 -213 rmoveto
            -60 -44 41 65 12 278 callgsubr
            return
          </CharString>
          <CharString index="566">
            120 171 280 169 hstem
            return
          </CharString>
          <CharString index="567">
            hhcurveto
            89 70 25 47 51 hvcurveto
            return
          </CharString>
          <CharString index="568">
            98 -15 -77 53 -108 hhcurveto
            return
          </CharString>
          <CharString index="569">
            hhcurveto
            70 51 22 34 38 hvcurveto
            return
          </CharString>
          <CharString index="570">
            -286 405 callsubr
            return
          </CharString>
          <CharString index="571">
            399 -94 callgsubr
            return
          </CharString>
          <CharString index="572">
            149 -149 233 hstemhm
            return
          </CharString>
          <CharString index="573">
            hhcurveto
            68 61 21 41 46 hvcurveto
            return
          </CharString>
          <CharString index="574">
            -278 113 31 100 return
          </CharString>
          <CharString index="575">
            208 -187 197 return
          </CharString>
          <CharString index="576">
            240 -240 503 return
          </CharString>
          <CharString index="577">
            214 -157 209 return
          </CharString>
          <CharString index="578">
            31 38 hhcurveto
            40 10 return
          </CharString>
          <CharString index="579">
            hlineto
            30 168 rlineto
            return
          </CharString>
          <CharString index="580">
            -64 580 callgsubr
            return
          </CharString>
          <CharString index="581">
            28 156 rlineto
            return
          </CharString>
          <CharString index="582">
            49 17 19 20 36 hhcurveto
            hintmask 0100010010000000
            59 45 -67 96 hhcurveto
            return
          </CharString>
          <CharString index="583">
            135 30 151 -151 223 -137 137 hstemhm
            return
          </CharString>
          <CharString index="584">
            hhcurveto
            -296 -137 -120 -171 -31 hvcurveto
            -12 -67 rlineto
            return
          </CharString>
          <CharString index="585">
            -30 -171 rlineto
            110 hlineto
            -15 -23 -12 -29 -6 -35 rrcurveto
            return
          </CharString>
          <CharString index="586">
            282 360 rmoveto
            20 3 17 8 19 hhcurveto
            167 hlineto
            return
          </CharString>
          <CharString index="587">
            79 163 77 570 callgsubr
            return
          </CharString>
          <CharString index="588">
            172 hstemhm
            20 190 -118 453 -183 183 return
          </CharString>
          <CharString index="589">
            125 -111 209 -155 155 -49 126 hstemhm
            return
          </CharString>
          <CharString index="590">
            13 240 rmoveto
            511 hlineto
            35 201 rlineto
            -511 hlineto
            return
          </CharString>
          <CharString index="591">
            -115 -20 90 -67 109 hhcurveto
            63 57 18 38 46 hvcurveto
            return
          </CharString>
          <CharString index="592">
            163 47 547 callgsubr
            return
          </CharString>
          <CharString index="593">
            rmoveto
            146 hlineto
            157 303 rlineto
            -220 hlineto
            endchar
          </CharString>
          <CharString index="594">
            31 176 rlineto
            return
          </CharString>
          <CharString index="595">
            -21 564 -20 return
          </CharString>
          <CharString index="596">
            -166 166 return
          </CharString>
          <CharString index="597">
            -453 -365 rlineto
            234 hlineto
            189 162 rlineto
            return
          </CharString>
          <CharString index="598">
            -122 rlineto
            178 hlineto
            103 585 rlineto
            -176 hlineto
            return
          </CharString>
          <CharString index="599">
            -21 callsubr
            -77 hlineto
            return
          </CharString>
          <CharString index="600">
            rmoveto
            -29 -24 14 27 5 hvcurveto
            24 4 20 14 33 hhcurveto
            return
          </CharString>
          <CharString index="601">
            445 465 rmoveto
            -156 105 rlineto
            1 175 vlineto
            return
          </CharString>
          <CharString index="602">
            545 callsubr
            -267 return
          </CharString>
          <CharString index="603">
            531 rmoveto
            7 40 rlineto
            120 -96 callsubr
            return
          </CharString>
          <CharString index="604">
            rlineto
            -174 hlineto
            -4 -24 rlineto
            -28 -5 -23 -12 -29 hhcurveto
            return
          </CharString>
          <CharString index="605">
            -169 rlineto
            462 hlineto
            -8 -44 rlineto
            -219 hlineto
            -105 return
          </CharString>
          <CharString index="606">
            -419 -373 113 callsubr
            165 164 rlineto
            return
          </CharString>
          <CharString index="607">
            750 -64 callgsubr
            return
          </CharString>
          <CharString index="608">
            560 callgsubr
            205 296 callsubr
          </CharString>
          <CharString index="609">
            44 8 27 28 41 hhcurveto
            49 8 return
          </CharString>
          <CharString index="610">
            hhcurveto
            102 callgsubr
            return
          </CharString>
          <CharString index="611">
            186 -28 81 92 27 153 return
          </CharString>
          <CharString index="612">
            -169 314 callsubr
            return
          </CharString>
          <CharString index="613">
            rmoveto
            -114 -26 30 40 7 hvcurveto
            return
          </CharString>
          <CharString index="614">
            -116 -103 -76 -188 -63 hvcurveto
            return
          </CharString>
          <CharString index="615">
            -51 33 -170 1 rrcurveto
            -56 hlineto
            return
          </CharString>
          <CharString index="616">
            hlineto
            24 26 17 31 7 39 rrcurveto
            return
          </CharString>
          <CharString index="617">
            -5 -1 -4 -1 -5 return
          </CharString>
          <CharString index="618">
            -205 205 hstemhm
            return
          </CharString>
          <CharString index="619">
            129 -129 return
          </CharString>
          <CharString index="620">
            176 hstem
            0 return
          </CharString>
          <CharString index="621">
            -32 -29 -2 hvcurveto
            154 hlineto
            hintmask 00010001
            117 36 return
          </CharString>
          <CharString index="622">
            -2 9 123 callgsubr
            return
          </CharString>
          <CharString index="623">
            rmoveto
            306 callgsubr
            return
          </CharString>
          <CharString index="624">
            74 212 50 225 -180 180 hstemhm
            40 return
          </CharString>
          <CharString index="625">
            -130 -110 -73 -137 -29 hvcurveto
            192 hlineto
            return
          </CharString>
          <CharString index="626">
            15 28 5 hvcurveto
            28 5 28 14 26 hhcurveto
            11 hlineto
            return
          </CharString>
          <CharString index="627">
            -3 16 18 -2 19 hhcurveto
            45 40 8 17 36 hvcurveto
            return
          </CharString>
          <CharString index="628">
            464 callgsubr
            59 127 23 hvcurveto
            return
          </CharString>
          <CharString index="629">
            206 576 callgsubr
            return
          </CharString>
          <CharString index="630">
            -66 -21 -39 -31 -92 hhcurveto
            -42 -46 7 36 7 hvcurveto
            return
          </CharString>
          <CharString index="631">
            172 -20.5 28.5 return
          </CharString>
          <CharString index="632">
            174 -5 116 100 27 151 rrcurveto
            endchar
          </CharString>
          <CharString index="633">
            hintmask 01101000
            20 282 rmoveto
            return
          </CharString>
          <CharString index="634">
            234 -234 294 return
          </CharString>
          <CharString index="635">
            hlineto
            257 callsubr
            return
          </CharString>
          <CharString index="636">
            hstemhm
            52 205 -205 return
          </CharString>
          <CharString index="637">
            565 rlineto
            -176 hlineto
            return
          </CharString>
          <CharString index="638">
            476 -181 181 return
          </CharString>
          <CharString index="639">
            31 179 rlineto
            endchar
          </CharString>
          <CharString index="640">
            100 564 rlineto
            return
          </CharString>
          <CharString index="641">
            -143 143 return
          </CharString>
          <CharString index="642">
            266 rmoveto
            32 return
          </CharString>
          <CharString index="643">
            169 383 169 hstem
            21 592 vstem
            return
          </CharString>
          <CharString index="644">
            8 36 29 49 hhcurveto
            48 25 -29 -48 -8 hvcurveto
            return
          </CharString>
          <CharString index="645">
            13 48 8 hvcurveto
            34 6 22 21 32 hhcurveto
            36 return
          </CharString>
          <CharString index="646">
            -169 -30 115 -80 136 hhcurveto
            45 hlineto
            return
          </CharString>
          <CharString index="647">
            hmoveto
            -28 callgsubr
            return
          </CharString>
          <CharString index="648">
            99 -55 55 -20 163 -110 127 hstemhm
            return
          </CharString>
          <CharString index="649">
            -125 -229 178 768 178 hstem
            return
          </CharString>
          <CharString index="650">
            -140 -26 110 -89 140 hhcurveto
            43 hlineto
            return
          </CharString>
          <CharString index="651">
            -55 -314 -65 callsubr
            return
          </CharString>
          <CharString index="652">
            -325 238 43 136 callgsubr
            return
          </CharString>
          <CharString index="653">
            -39 -222 rlineto
            203 -75 callsubr
            return
          </CharString>
          <CharString index="654">
            17 97 -31 71 -68 32 10 56 rcurveline
            endchar
          </CharString>
          <CharString index="655">
            rrcurveto
            19 3 16 8 19 hhcurveto
            return
          </CharString>
          <CharString index="656">
            hhcurveto
            27 7 -18 -25 -4 hvcurveto
            return
          </CharString>
          <CharString index="657">
            -95 284 -284 835 return
          </CharString>
          <CharString index="658">
            -5 -31 -26 -24 -27 -19 rrcurveto
            return
          </CharString>
          <CharString index="659">
            7 31 -4 580 callsubr
            return
          </CharString>
          <CharString index="660">
            0 232 -227 176 return
          </CharString>
          <CharString index="661">
            hhcurveto
            -54 -46 -17 -31 -33 hvcurveto
            return
          </CharString>
          <CharString index="662">
            -282 227 46 return
          </CharString>
          <CharString index="663">
            -9 421 callsubr
            return
          </CharString>
          <CharString index="664">
            -27 -3 -6 -25 hvcurveto
            return
          </CharString>
          <CharString index="665">
            571 rmoveto
            76 hlineto
            return
          </CharString>
          <CharString index="666">
            -29 -165 rlineto
            return
          </CharString>
          <CharString index="667">
            hstemhm
            32 665 return
          </CharString>
          <CharString index="668">
            rlineto
            221 hlineto
            return
          </CharString>
          <CharString index="669">
            rmoveto
            hintmask 01111000
            -209 hlineto
            hintmask 10111000
            -24 -4 return
          </CharString>
          <CharString index="670">
            227 -219 556 callgsubr
            hstemhm
            return
          </CharString>
          <CharString index="671">
            -125 -64 -147 -25 hvcurveto
            -127 -22 return
          </CharString>
          <CharString index="672">
            30 123 41 131 44 -3 callgsubr
            return
          </CharString>
          <CharString index="673">
            160 132 131 callsubr
            404 return
          </CharString>
          <CharString index="674">
            0 232 -230 159 -98 169 return
          </CharString>
          <CharString index="675">
            214 rmoveto
            -40 -1 -25 28 7 36 rrcurveto
            return
          </CharString>
          <CharString index="676">
            399 callgsubr
            13 69 rcurveline
            return
          </CharString>
          <CharString index="677">
            377 callgsubr
            -117 171 return
          </CharString>
          <CharString index="678">
            180 -180 225 50 212 74 return
          </CharString>
          <CharString index="679">
            129.5 -129.5 return
          </CharString>
          <CharString index="680">
            578 callsubr
            148 -148 428 return
          </CharString>
          <CharString index="681">
            43 42 29 56 12 68 rrcurveto
            -193 hlineto
            return
          </CharString>
          <CharString index="682">
            -3 callgsubr
            35 212 -156 208 return
          </CharString>
          <CharString index="683">
            98 callsubr
            233 return
          </CharString>
          <CharString index="684">
            rlineto
            183 -75 callsubr
            endchar
          </CharString>
          <CharString index="685">
            146 -146 return
          </CharString>
          <CharString index="686">
            -86 145 hhcurveto
            return
          </CharString>
          <CharString index="687">
            hvcurveto
            -192 hlineto
            return
          </CharString>
          <CharString index="688">
            6 33 -2 28 return
          </CharString>
          <CharString index="689">
            hstemhm
            13 667 return
          </CharString>
          <CharString index="690">
            hstemhm
            -50 773 return
          </CharString>
          <CharString index="691">
            -214 214 return
          </CharString>
        <CharString name=".notdef">
          -158 0 50 600 50 hstem
          0 50 400 50 vstem
          0 vmoveto
          500 700 -500 hlineto
          250 -305 rmoveto
          -170 255 rlineto
          340 hlineto
          -140 -300 rmoveto
          170 255 rlineto
          -510 vlineto
          -370 -45 rmoveto
          170 255 170 -255 rlineto
          -370 555 rmoveto
          170 -255 -170 -255 rlineto
          endchar
        </CharString>
        <CharString name="A">
          2 callgsubr
          hintmask 10110000
          -24 167 125 callsubr
        </CharString>
        <CharString name="AE">
          382 callgsubr
          535 537 83 callgsubr
        </CharString>
        <CharString name="Aacute">
          2 callgsubr
          -108 790 -64 callgsubr
          hintmask 10110000
          -194 -733 125 callsubr
        </CharString>
        <CharString name="Abreve">
          77 callsubr
          59 186 callgsubr
          -50 773 hintmask 10110100
          -18 callsubr
          hintmask 01110100
          282 callgsubr
          220 843 rmoveto
          hintmask 10101100
          289 callgsubr
          hintmask 10110100
          190 callsubr
          hintmask 10101100
          25 callsubr
          hintmask 10110100
          -138 -24 71 -65 105 hhcurveto
          hintmask 01110100
          105 95 65 138 24 hvcurveto
          hintmask 10110100
          -244 -676 125 callsubr
        </CharString>
        <CharString name="Acircumflex">
          2 callgsubr
          185 776 -51 callsubr
          hintmask 10110000
          -184 -465 125 callsubr
        </CharString>
        <CharString name="Adieresis">
          77 callsubr
          79 172 583 callsubr
          -436 330 callgsubr
          hintmask 10111000
          -18 callsubr
          hintmask 01111000
          282 callgsubr
          hintmask 10110110
          -114 660 -92 callsubr
          -135 -493 125 callsubr
        </CharString>
        <CharString name="Agrave">
          2 callgsubr
          -118 736 -1 callgsubr
          hintmask 10110000
          65 -733 125 callsubr
        </CharString>
        <CharString name="Amacron">
          77 callsubr
          81 147 583 callsubr
          hintmask 10111000
          -18 callsubr
          hintmask 01111000
          282 callgsubr
          -215 662 34 callgsubr
          hintmask 10111000
          165 -642 125 callsubr
        </CharString>
        <CharString name="Aogonek">
          115 -223 116 -116 931 -687 -21 107 167 434 -20 583 callsubr
          hintmask 00111100
          334 708 rmoveto
          -384 -708 rlineto
          233 hlineto
          282 callgsubr
          16 -107 -35 -30 -15 -31 -7 -36 rlinecurve
          hintmask 01000100
          -80 -14 52 -46 100 hhcurveto
          43 39 6 10 35 hvcurveto
          hintmask 10111100
          20 116 rlineto
          -11 -35 -28 -5 -22 hhcurveto
          -24 -11 9 16 3 hvcurveto
          3 16 15 20 68 27 47 19 rcurveline
          -133 708 rlineto
          -141 -434 125 callsubr
        </CharString>
        <CharString name="Aring">
          77 callsubr
          52 85 94 85 hstemhm
          537 89 hintmask 10111100
          -18 callsubr
          hintmask 01111100
          282 callgsubr
          64 765 rmoveto
          22 callsubr
          -178 hmoveto
          70 callsubr
          -73 -67 -50 -82 -15 hvcurveto
          hintmask 10111100
          90 -598 125 callsubr
        </CharString>
        <CharString name="Atilde">
          77 callsubr
          71 -24 callgsubr
          -50 776 hintmask 10101001
          -18 callsubr
          hintmask 01110001
          282 callgsubr
          -236 652 423 callgsubr
          hintmask 10100011
          158 callsubr
          hintmask 10101001
          256 callgsubr
          hintmask 10100101
          24 callgsubr
          hintmask 10101001
          -32 -10 -18 -15 -24 hhcurveto
          hintmask 10100011
          -40 -31 46 -65 hhcurveto
          hintmask 01110001
          -82 -65 -48 -128 -45 hvcurveto
          hintmask 10101001
          212 -485 125 callsubr
        </CharString>
        <CharString name="B">
          26 0 178 100 154 100 176 hstemhm
          422 224 -194 237 hintmask 11110000
          422 227 rmoveto
          -35 -6 -21 -14 -40 hhcurveto
          -101 hlineto
          17 100 rlineto
          101 hlineto
          40 16 -17 -34 -6 hvcurveto
          hintmask 11101000
          30 254 rmoveto
          -34 -6 -22 -15 -40 hhcurveto
          -86 hlineto
          18 100 rlineto
          86 hlineto
          40 16 -16 -35 -6 hvcurveto
          191 -287 rmoveto
          hintmask 11110000
          15 79 -36 69 -84 21 73 18 60 58 15 85 rrcurveto
          hintmask 11101000
          123 21 -80 61 -141 hhcurveto
          -361 211 callsubr
          371 hlineto
          154 97 70 124 21 hvcurveto
          endchar
        </CharString>
        <CharString name="C">
          -71 callgsubr
          endchar
        </CharString>
        <CharString name="CR">
          -488 endchar
        </CharString>
        <CharString name="Cacute">
          -71 callgsubr
          312 542 -64 callgsubr
          endchar
        </CharString>
        <CharString name="Ccaron">
          -71 callgsubr
          440 525 -51 callgsubr
        </CharString>
        <CharString name="Ccedilla">
          95 467 callsubr
          -100 334 -334 408 -254 -21 22 -21 436 279 511 callsubr
          36 228 hintmask 1100011010000000
          43 355 rmoveto
          hintmask 1100101010000000
          -34 -192 85 -140 179 -24 -24 -133 rcurveline
          -24 callsubr
          375 callsubr
          hintmask 1100011010000000
          6 34 rlineto
          -5 hlineto
          hintmask 1001001010000000
          155 23 119 105 52 146 rrcurveto
          -234 hlineto
          hintmask 1010000110000000
          -47 -30 -46 -27 -50 hhcurveto
          -75 -36 61 94 17 hvcurveto
          94 16 57 61 75 hhcurveto
          hintmask 1100011010000000
          50 37 -27 -47 13 hvcurveto
          234 hlineto
          167 1 -108 112 -187 hhcurveto
          -217 -159 -149 -211 -37 hvcurveto
          endchar
        </CharString>
        <CharString name="Cdotaccent">
          -71 callgsubr
          418 412 -63 callsubr
          endchar
        </CharString>
        <CharString name="D">
          83 callsubr
          endchar
        </CharString>
        <CharString name="Dcaron">
          83 callsubr
          155 682 -51 callgsubr
        </CharString>
        <CharString name="Dcroat">
          31 callsubr
        </CharString>
        <CharString name="E">
          339 callgsubr
          hstem
          0 597 vstem
          -83 callgsubr
          endchar
        </CharString>
        <CharString name="Eacute">
          339 callgsubr
          hstem
          0 597 vstem
          -83 callgsubr
          -306 365 -64 callgsubr
          endchar
        </CharString>
        <CharString name="Ebreve">
          339 callgsubr
          39 186 callgsubr
          0 597 hintmask 11110100
          -83 callgsubr
          22 418 rmoveto
          hintmask 11101100
          289 callgsubr
          hintmask 11110100
          190 callsubr
          hintmask 11101100
          25 callsubr
          hintmask 11110100
          7 callsubr
          endchar
        </CharString>
        <CharString name="Ecaron">
          339 callgsubr
          hstem
          0 597 vstem
          -83 callgsubr
          -178 348 -51 callgsubr
        </CharString>
        <CharString name="Ecircumflex">
          339 callgsubr
          hstem
          0 597 vstem
          -83 callgsubr
          -13 351 -51 callsubr
          endchar
        </CharString>
        <CharString name="Edieresis">
          339 callgsubr
          59 172 hstemhm
          0 597 -415 330 callgsubr
          hintmask 11101000
          -83 callgsubr
          hintmask 11110110
          -312 235 -92 callsubr
          endchar
        </CharString>
        <CharString name="Edotaccent">
          339 callgsubr
          hstem
          0 597 vstem
          -83 callgsubr
          -200 235 -63 callsubr
          endchar
        </CharString>
        <CharString name="Egrave">
          339 callgsubr
          hstem
          0 597 vstem
          -83 callgsubr
          -316 311 -1 callgsubr
          endchar
        </CharString>
        <CharString name="Emacron">
          339 callgsubr
          61 147 hstem
          0 610 vstem
          -83 callgsubr
          -413 237 34 callgsubr
          endchar
        </CharString>
        <CharString name="Eogonek">
          -102 -223 116 107 141 callgsubr
          hstem
          0 597 vstem
          597 708 rmoveto
          -472 211 callsubr
          249 hlineto
          -44 -33 -18 -33 -7 -37 rrcurveto
          205 callsubr
          -18 callgsubr
          46 21 rcurveline
          31 177 rlineto
          -250 hlineto
          18 100 297 callgsubr
          30 167 rlineto
          -220 hlineto
          15 88 rlineto
          250 hlineto
          endchar
        </CharString>
        <CharString name="Eth">
          31 callsubr
        </CharString>
        <CharString name="Euro">
          132 -5 205 44 30 -30 99 28 100 -35 279 511 callsubr
          8 779 hintmask 10101010
          80 355 rmoveto
          -1 -4 0 -4 -1 -4 rrcurveto
          -52 hlineto
          -18 -99 rlineto
          66 hlineto
          -150 12 103 -99 177 hhcurveto
          hintmask 11001010
          187 147 112 167 59 hvcurveto
          -234 hlineto
          -47 -30 -46 -27 -50 hhcurveto
          hintmask 10101010
          -38 -28 16 28 -16 hvcurveto
          127 hlineto
          18 99 rlineto
          -159 hlineto
          hintmask 10110110
          1 4 0 4 1 4 1 5 1 6 1 5 rrcurveto
          159 hlineto
          17 100 rlineto
          -124 hlineto
          25 25 32 14 36 hhcurveto
          hintmask 10101010
          50 37 -27 -47 13 hvcurveto
          234 hlineto
          167 1 -108 112 -187 hhcurveto
          hintmask 10110010
          -175 -137 -96 -148 -66 hvcurveto
          -67 hlineto
          -17 -100 rlineto
          52 hlineto
          hintmask 10101010
          -1 -5 -1 -6 -1 -5 rrcurveto
          endchar
        </CharString>
        <CharString name="F">
          -83 21 -21 267 167 98 513 callsubr
          625 vstem
          0 vmoveto
          222 hlineto
          47 267 rlineto
          200 hlineto
          30 167 rlineto
          -200 hlineto
          17 98 rlineto
          278 hlineto
          487 callsubr
          -500 hlineto
          endchar
        </CharString>
        <CharString name="G">
          24 callsubr
          endchar
        </CharString>
        <CharString name="Gbreve">
          94 -5 276 callgsubr
          32 186 callgsubr
          36 227 hintmask 11100010
          43 355 rmoveto
          6 callsubr
          hintmask 11010010
          94 16 59 61 86 hhcurveto
          hintmask 11100010
          46 29 -17 -27 12 hvcurveto
          234 hlineto
          151 6 -104 98 -188 hhcurveto
          -222 -162 -149 -211 -37 hvcurveto
          hintmask 11101010
          640 595 rmoveto
          hintmask 11100110
          289 callgsubr
          hintmask 11101010
          190 callsubr
          hintmask 11100110
          25 callsubr
          hintmask 11101010
          7 callsubr
          endchar
        </CharString>
        <CharString name="Gdotaccent">
          24 callsubr
          418 412 -63 callsubr
          endchar
        </CharString>
        <CharString name="H">
          97 0 453 -177 432 hstemhm
          0 780 hintmask 10100000
          433 hmoveto
          222 hlineto
          hintmask 01100000
          407 callsubr
          -222 hlineto
          hintmask 10100000
          -45 -255 rlineto
          -211 hlineto
          hintmask 01100000
          45 255 124 callgsubr
          hintmask 10100000
          349 callgsubr
          hintmask 01100000
          49 276 rlineto
          211 hlineto
          endchar
        </CharString>
        <CharString name="I">
          -336 209 callgsubr
          347 vstem
          63 callgsubr
          endchar
        </CharString>
        <CharString name="Iacute">
          -336 209 callgsubr
          418 vstem
          63 callgsubr
          15 189 -64 callgsubr
          endchar
        </CharString>
        <CharString name="Icircumflex">
          -336 209 callgsubr
          433 vstem
          63 callgsubr
          308 175 -51 callsubr
          endchar
        </CharString>
        <CharString name="Idieresis">
          -336 186 callsubr
          79 172 hstemhm
          0 462 -400 330 callgsubr
          hintmask 11110000
          63 callgsubr
          hintmask 11101100
          9 59 -92 callsubr
          endchar
        </CharString>
        <CharString name="Idotaccent">
          -336 209 callgsubr
          349 vstem
          63 callgsubr
          121 59 -63 callsubr
          endchar
        </CharString>
        <CharString name="Igrave">
          -336 209 callgsubr
          399 vstem
          63 callgsubr
          5 135 -1 callgsubr
          endchar
        </CharString>
        <CharString name="Imacron">
          -336 186 callsubr
          81 147 hstem
          0 490 vstem
          63 callgsubr
          -92 61 34 callgsubr
          endchar
        </CharString>
        <CharString name="Iogonek">
          -336 -223 116 815 -20 hstem
          -72 419 vstem
          186 -207 342 callsubr
          46 21 rcurveline
          407 callsubr
          -222 hlineto
          -125 -707 -45 -33 -18 -34 -7 -37 rlinecurve
          205 callsubr
          endchar
        </CharString>
        <CharString name="Itilde">
          -336 186 callsubr
          71 -24 callgsubr
          0 501 hintmask 11010010
          63 callgsubr
          hintmask 11100010
          -113 51 -7 callgsubr
          hhcurveto
          hintmask 11000110
          -40 -31 46 -65 hhcurveto
          hintmask 11100010
          97 callsubr
        </CharString>
        <CharString name="J">
          -68 -7 200 -200 278 437 -20 hstemhm
          2 222 hintmask 10110000
          318 251 rmoveto
          -46 -9 -20 -12 -24 hhcurveto
          hintmask 01110000
          -29 -20 16 62 11 hvcurveto
          -219 hlineto
          -186 -33 99 -92 166 hhcurveto
          156 112 85 173 31 hvcurveto
          80 457 177 callsubr
          endchar
        </CharString>
        <CharString name="K">
          97 209 callgsubr
          801 vstem
          428 hmoveto
          199 callsubr
        </CharString>
        <CharString name="L">
          432 callsubr
          466 vstem
          331 callgsubr
          rmoveto
          100 callsubr
          endchar
        </CharString>
        <CharString name="Lacute">
          432 callsubr
          487 vstem
          331 callgsubr
          rmoveto
          100 callsubr
          -138 189 -64 callgsubr
          endchar
        </CharString>
        <CharString name="Lcaron">
          -81 0 168 229 79 86 146 hstem
          489 118 vstem
          444 708 rmoveto
          15 callsubr
          -475 hmoveto
          100 callsubr
          endchar
        </CharString>
        <CharString name="Ldot">
          432 callsubr
          466 vstem
          331 callgsubr
          rmoveto
          100 callsubr
          -32 59 -63 callsubr
          endchar
        </CharString>
        <CharString name="Lslash">
          -137 0 168 540 -20 hstem
          -1 482 vstem
          140 708 rmoveto
          -45 -256 -58 -15 -38 -216 58 15 -42 -236 rlineto
          436 472 callsubr
          -214 hlineto
          23 129 78 21 38 216 -78 -21 34 195 rlineto
          endchar
        </CharString>
        <CharString name="M">
          293 209 callgsubr
          976 vstem
          0 vmoveto
          222 hlineto
          62 355 47 -355 rlineto
          190 hlineto
          171 352 -62 -352 561 callsubr
          407 callsubr
          -271 hlineto
          -227 -426 -81 426 rlineto
          -272 hlineto
          endchar
        </CharString>
        <CharString name="N">
          121 209 callgsubr
          804 vstem
          582 708 4 callgsubr
          endchar
        </CharString>
        <CharString name="NULL">
          -658 endchar
        </CharString>
        <CharString name="Nacute">
          121 209 callgsubr
          804 vstem
          582 708 4 callgsubr
          -437 189 -64 callgsubr
          endchar
        </CharString>
        <CharString name="Ncaron">
          121 209 callgsubr
          804 vstem
          582 708 4 callgsubr
          -309 172 -51 callgsubr
        </CharString>
        <CharString name="Ntilde">
          121 0 936 -915 282 callsubr
          71 176 -174 128 -83 129 hstemhm
          0 804 hintmask 01101010
          582 708 4 callgsubr
          hintmask 01110010
          -565 51 423 callgsubr
          hintmask 01100110
          158 callsubr
          hintmask 01101010
          256 callgsubr
          hintmask 10000010
          24 callgsubr
          hintmask 01101010
          -32 -10 -18 -15 -24 hhcurveto
          hintmask 01100110
          -40 -31 46 -65 hhcurveto
          hintmask 01110010
          97 callsubr
        </CharString>
        <CharString name="O">
          150 callsubr
          hstem
          237 callsubr
          vstem
          -93 callgsubr
          endchar
        </CharString>
        <CharString name="OE">
          398 -12 205 -193 177 100 167 71 205 -188 176 hstemhm
          43 229 hintmask 01101100
          1066 532 rmoveto
          487 callsubr
          -472 hlineto
          hintmask 10110100
          -6 -37 rlineto
          33 -39 -59 16 -59 hhcurveto
          -202 -172 -151 -215 -38 hvcurveto
          -215 -38 119 -151 202 hhcurveto
          60 3 64 13 50 33 rrcurveto
          hintmask 01101100
          -7 -37 rlineto
          472 439 callsubr
          -250 hlineto
          18 100 297 callgsubr
          30 167 rlineto
          -220 hlineto
          15 88 rlineto
          hintmask 10110100
          -373 -17 rmoveto
          89 38 -63 -98 -17 hvcurveto
          -98 -18 -60 -63 -89 hhcurveto
          -91 -37 63 98 18 hvcurveto
          98 17 59 63 91 hhcurveto
          endchar
        </CharString>
        <CharString name="Oacute">
          150 callsubr
          hstem
          237 callsubr
          vstem
          -93 callgsubr
          108 580 -64 callgsubr
          endchar
        </CharString>
        <CharString name="Ocircumflex">
          150 callsubr
          hstem
          237 callsubr
          vstem
          -93 callgsubr
          401 566 -51 callsubr
          endchar
        </CharString>
        <CharString name="Odieresis">
          150 callsubr
          47 172 hstemhm
          47 218 30 330 callgsubr
          -145 217 hintmask 11110010
          -93 callgsubr
          hintmask 11111100
          102 450 -92 callsubr
          endchar
        </CharString>
        <CharString name="Ograve">
          150 callsubr
          hstem
          237 callsubr
          vstem
          -93 callgsubr
          98 526 -1 callgsubr
          endchar
        </CharString>
        <CharString name="Ohungarumlaut">
          150 callsubr
          28 244 hstemhm
          237 callsubr
          hintmask 11011000
          -93 callgsubr
          hintmask 11111000
          388 675 49 callsubr
        </CharString>
        <CharString name="Omacron">
          150 callsubr
          49 147 hstem
          237 callsubr
          vstem
          -93 callgsubr
          1 452 34 callgsubr
          endchar
        </CharString>
        <CharString name="Oslash">
          130 -7 207 -178 -21 514 205 -8 -20 hstemhm
          46 218 285 217 hintmask 10101100
          766 427 rmoveto
          65 -16 57 -30 46 vhcurveto
          hintmask 10011100
          125 117 rlineto
          -115 hlineto
          hintmask 01101100
          -62 -58 rlineto
          42 -51 -70 24 -84 hhcurveto
          -249 -168 -175 -256 -66 17 -58 30 -47 hvcurveto
          -125 -117 rlineto
          116 hlineto
          hintmask 10101100
          62 58 rlineto
          -42 51 68 -24 81 hhcurveto
          252 168 179 255 hvcurveto
          -502 -110 rmoveto
          105 63 93 108 27 22 -6 -10 18 vhcurveto
          -234 -218 rlineto
          -3 11 -1 12 13 vvcurveto
          116 -117 rmoveto
          -27 -22 5 11 -17 hvcurveto
          232 216 rlineto
          2 -10 1 -11 -12 vvcurveto
          -105 -61 -94 -108 vhcurveto
          endchar
        </CharString>
        <CharString name="Otilde">
          150 callsubr
          39 -24 callgsubr
          237 callsubr
          hintmask 11010011
          -93 callgsubr
          hintmask 11100011
          -20 442 423 callgsubr
          hintmask 11000111
          158 callsubr
          hintmask 11010011
          256 callgsubr
          hintmask 11001011
          24 callgsubr
          hintmask 11010011
          -32 -10 -18 -15 -24 hhcurveto
          hintmask 11000111
          -40 -31 46 -65 hhcurveto
          hintmask 11100011
          97 callsubr
        </CharString>
        <CharString name="P">
          -9 21 -21 225 175 130 178 hstem
          436 230 vstem
          293 400 rmoveto
          23 130 rlineto
          63 hlineto
          50 14 -26 -39 -7 hvcurveto
          -39 -7 -23 -26 -50 hhcurveto
          305 65 rmoveto
          143 25 -73 100 -178 hhcurveto
          -310 175 callgsubr
          40 225 rlineto
          88 hlineto
          178 110 109 131 23 hvcurveto
          endchar
        </CharString>
        <CharString name="Q">
          130 -115 315 -207 207 315 205 hstemhm
          237 callsubr
          hintmask 01111000
          265 317 rmoveto
          105 63 93 108 75 39 -44 -72 -105 -61 -94 -108 -77 -39 45 72 vhcurveto
          502 110 rmoveto
          176 -117 117 -186 -249 -168 -175 -256 -176 118 -120 182 18 17 1 2 17 vhcurveto
          hintmask 10111000
          47 -111 rlineto
          262 hlineto
          -106 186 rlineto
          hintmask 01111000
          104 76 61 126 154 vvcurveto
          endchar
        </CharString>
        <CharString name="R">
          -15 callsubr
          endchar
        </CharString>
        <CharString name="Racute">
          -15 callsubr
          -152 189 -64 callgsubr
          endchar
        </CharString>
        <CharString name="Rcaron">
          -15 callsubr
          -24 172 -51 callgsubr
        </CharString>
        <CharString name="S">
          -47 callgsubr
          endchar
        </CharString>
        <CharString name="Sacute">
          -47 callgsubr
          -284 676 -64 callgsubr
          endchar
        </CharString>
        <CharString name="Scaron">
          -47 callgsubr
          -156 659 -51 callgsubr
        </CharString>
        <CharString name="T">
          -42 21 -21 532 176 hstem
          54 627 vstem
          54 532 160 callgsubr
          endchar
        </CharString>
        <CharString name="Tcaron">
          -42 21 -21 532 176 hstem
          54 627 vstem
          54 532 160 callgsubr
          324 172 -51 callgsubr
        </CharString>
        <CharString name="Thorn">
          -9 0 290 561 callgsubr
          130 168 -168 288 hstemhm
          417 229 hintmask 10011000
          273 290 rmoveto
          23 130 rlineto
          63 hlineto
          50 15 -26 -39 -7 hvcurveto
          -39 -7 -24 -26 -50 hhcurveto
          hintmask 01101000
          306 65 rmoveto
          137 24 -74 96 -178 hhcurveto
          -90 hlineto
          hintmask 10011000
          21 120 rlineto
          -220 175 callgsubr
          hintmask 01011000
          22 125 rlineto
          88 hlineto
          hintmask 01101000
          178 110 104 126 22 hvcurveto
          endchar
        </CharString>
        <CharString name="U">
          208 callsubr
          hstem
          44 225 vstem
          -88 callgsubr
          endchar
        </CharString>
        <CharString name="Uacute">
          208 callsubr
          hstem
          44 225 vstem
          -88 callgsubr
          217 189 -64 callgsubr
          endchar
        </CharString>
        <CharString name="Ubreve">
          208 callsubr
          59 186 callgsubr
          44 225 hintmask 11101000
          -88 callgsubr
          545 242 rmoveto
          hintmask 11011000
          289 callgsubr
          hintmask 11101000
          190 callsubr
          hintmask 11011000
          25 callsubr
          hintmask 11101000
          7 callsubr
          endchar
        </CharString>
        <CharString name="Ucircumflex">
          208 callsubr
          hstem
          44 225 vstem
          -88 callgsubr
          510 175 -51 callsubr
          endchar
        </CharString>
        <CharString name="Udieresis">
          208 callsubr
          79 172 hstemhm
          44 225 -9 330 callgsubr
          hintmask 11110000
          -88 callgsubr
          hintmask 11101100
          211 59 -92 callsubr
          endchar
        </CharString>
        <CharString name="Ugrave">
          208 callsubr
          hstem
          44 225 vstem
          -88 callgsubr
          207 135 -1 callgsubr
          endchar
        </CharString>
        <CharString name="Uhungarumlaut">
          208 callsubr
          60 244 hstem
          44 225 vstem
          -88 callgsubr
          497 284 49 callsubr
        </CharString>
        <CharString name="Umacron">
          208 callsubr
          81 147 hstem
          44 225 vstem
          -88 callgsubr
          110 61 34 callgsubr
          endchar
        </CharString>
        <CharString name="Uogonek">
          61 -220 116 -116 423 -423 928 0 -20 hstemhm
          44 225 hintmask 10011000
          51 309 rmoveto
          -28 -159 59 -99 107 -39 -53 -36 -21 -36 -7 -40 rrcurveto
          hintmask 00101000
          205 callsubr
          hintmask 10011000
          -18 callgsubr
          46 21 rcurveline
          138 30 109 100 31 176 70 399 rcurveline
          -221 hlineto
          -70 -399 rlineto
          hintmask 01011000
          -61 -11 -35 -45 -67 hhcurveto
          -67 -16 45 61 11 hvcurveto
          70 399 177 callsubr
          endchar
        </CharString>
        <CharString name="Uring">
          208 callsubr
          52 85 94 85 hstem
          44 225 241 89 vstem
          -88 callgsubr
          211 164 rmoveto
          70 callsubr
          -73 -67 -50 -82 -15 hvcurveto
          178 hmoveto
          22 callsubr
          endchar
        </CharString>
        <CharString name="Utilde">
          208 callsubr
          71 -24 callgsubr
          44 225 hintmask 11010010
          -88 callgsubr
          hintmask 11100010
          89 51 -7 callgsubr
          hhcurveto
          hintmask 11000110
          -40 -31 46 -65 hhcurveto
          hintmask 11100010
          97 callsubr
        </CharString>
        <CharString name="V">
          105 226 callgsubr
          75 763 vstem
          188 hmoveto
          287 hlineto
          363 708 rlineto
          -236 hlineto
          -231 -487 -60 487 rlineto
          -236 hlineto
          endchar
        </CharString>
        <CharString name="W">
          -43 callsubr
          endchar
        </CharString>
        <CharString name="Wacute">
          -43 callsubr
          399 186 -64 callgsubr
          endchar
        </CharString>
        <CharString name="Wcircumflex">
          -43 callsubr
          691 172 -51 callsubr
          endchar
        </CharString>
        <CharString name="Wdieresis">
          442 0 262 -241 282 callsubr
          76 172 hstemhm
          425 175 -23.5 178 -104.5 175 hintmask 01110100
          142 hmoveto
          276 hlineto
          153 402 11 -402 rlineto
          276 hlineto
          287 708 rlineto
          -239 hlineto
          hintmask 10110100
          -143 -446 -17 446 rlineto
          -242 hlineto
          -174 -446 14 446 rlineto
          -239 hlineto
          hintmask 01111010
          392 56 -92 callsubr
          endchar
        </CharString>
        <CharString name="Wgrave">
          -43 callsubr
          389 132 -1 callgsubr
          endchar
        </CharString>
        <CharString name="X">
          106 226 callgsubr
          -40 860 vstem
          451 hmoveto
          263 hlineto
          -186 350 292 358 rlineto
          -253 hlineto
          -135 -177 -94 177 rlineto
          -263 hlineto
          182 -343 -297 -365 rlineto
          253 hlineto
          141 184 rlineto
          endchar
        </CharString>
        <CharString name="Y">
          72 226 callgsubr
          75 730 vstem
          -19 callsubr
          endchar
        </CharString>
        <CharString name="Yacute">
          72 226 callgsubr
          75 730 vstem
          -19 callsubr
          269 189 -64 callgsubr
          endchar
        </CharString>
        <CharString name="Ycircumflex">
          72 226 callgsubr
          75 730 vstem
          -19 callsubr
          562 175 -51 callsubr
          endchar
        </CharString>
        <CharString name="Ydieresis">
          72 186 callsubr
          79 172 hstemhm
          75 730 -539 330 callgsubr
          hintmask 11110000
          -19 callsubr
          hintmask 11101100
          263 59 -92 callsubr
          endchar
        </CharString>
        <CharString name="Ygrave">
          72 226 callgsubr
          75 730 vstem
          -19 callsubr
          259 135 -1 callgsubr
          endchar
        </CharString>
        <CharString name="Z">
          -9 callgsubr
          endchar
        </CharString>
        <CharString name="Zacute">
          -9 callgsubr
          -333 356 -64 callgsubr
          endchar
        </CharString>
        <CharString name="Zcaron">
          -9 callgsubr
          -205 339 -51 callgsubr
        </CharString>
        <CharString name="Zdotaccent">
          -9 callgsubr
          -227 226 -63 callsubr
          endchar
        </CharString>
        <CharString name="a">
          -40 callgsubr
          endchar
        </CharString>
        <CharString name="a.ss02">
          16 callgsubr
          205 callgsubr
          hintmask 01010010
          325 hmoveto
          -38 callsubr
        </CharString>
        <CharString name="aacute">
          -40 callgsubr
          -110 468 -64 callgsubr
          endchar
        </CharString>
        <CharString name="aacute.ss02">
          16 callgsubr
          205 callgsubr
          hintmask 10010010
          299 500 callsubr
          hintmask 01010010
          -252 -860 rmoveto
          -38 callsubr
        </CharString>
        <CharString name="abreve">
          62 callsubr
          56 186 callgsubr
          13 667 hintmask 01101010
          -37 callgsubr
          hintmask 10011010
          63 callsubr
          hintmask 01101010
          -29 callsubr
          hintmask 10101010
          -86 callgsubr
          hintmask 01011010
          218 521 rmoveto
          hintmask 01010110
          289 callgsubr
          hintmask 01011010
          190 callsubr
          hintmask 01010110
          25 callsubr
          hintmask 01011010
          7 callsubr
          endchar
        </CharString>
        <CharString name="abreve.ss02">
          16 callgsubr
          28 186 callgsubr
          -4 231 -231 634 -247 225 hintmask 1001010010000000
          627 803 rmoveto
          hintmask 1001001010000000
          289 callgsubr
          hintmask 1001010010000000
          190 callsubr
          hintmask 1001001010000000
          25 callsubr
          hintmask 1001010010000000
          7 callsubr
          hintmask 0101000001000000
          -302 -803 rmoveto
          221 hlineto
          58 329 rlineto
          3 19 1 15 16 vvcurveto
          hintmask 1001000001000000
          -6 callsubr
          hintmask 0100100101000000
          -71 callsubr
          hintmask 1011000100000000
          -111 98 rmoveto
          27 27 22 38 vhcurveto
          70 -2 hlineto
          -41 -8 -42 -37 -44 hhcurveto
          -25 -16 11 20 hvcurveto
          endchar
        </CharString>
        <CharString name="acircumflex">
          -40 callgsubr
          183 454 -51 callsubr
          endchar
        </CharString>
        <CharString name="acircumflex.ss02">
          16 callgsubr
          205 callgsubr
          hintmask 10010010
          592 736 -51 callsubr
          hintmask 01010010
          -242 -592 rmoveto
          -38 callsubr
        </CharString>
        <CharString name="acute">
          -379 602 258 hstem
          66 305 vstem
          93 500 callsubr
          endchar
        </CharString>
        <CharString name="adieresis">
          62 callsubr
          76 172 582 callsubr
          -459 330 callgsubr
          hintmask 01101100
          -37 callgsubr
          hintmask 10011100
          63 callsubr
          hintmask 01101100
          -29 callsubr
          hintmask 10101011
          -86 callgsubr
          -116 338 -92 callsubr
          endchar
        </CharString>
        <CharString name="adieresis.ss02">
          16 callgsubr
          48 172 583 callgsubr
          -6 175 -13 225 -162 175 hintmask 0101010101000000
          293 620 -92 callsubr
          -193 -620 -41 callgsubr
        </CharString>
        <CharString name="ae">
          -46 callsubr
          endchar
        </CharString>
        <CharString name="agrave">
          62 callsubr
          206 -20 582 callsubr
          hintmask 01101100
          -37 callgsubr
          hintmask 10011100
          63 callsubr
          hintmask 01101100
          -29 callsubr
          hintmask 10101100
          -86 callgsubr
          -120 414 -1 callgsubr
          endchar
        </CharString>
        <CharString name="agrave.ss02">
          16 callgsubr
          178 -20 205 callgsubr
          hintmask 1001010100000000
          289 696 -1 callgsubr
          hintmask 0101010100000000
          7 -860 -41 callgsubr
        </CharString>
        <CharString name="amacron">
          62 callsubr
          78 147 582 callsubr
          hintmask 01101100
          -37 callgsubr
          hintmask 10011100
          63 callsubr
          hintmask 01101100
          -29 callsubr
          hintmask 10101100
          -86 callgsubr
          -217 340 34 callgsubr
          endchar
        </CharString>
        <CharString name="amacron.ss02">
          16 callgsubr
          50 147 420 callsubr
          653 -266 225 hintmask 1001010100000000
          192 622 34 callgsubr
          hintmask 0101010100000000
          107 -769 -41 callgsubr
        </CharString>
        <CharString name="ampersand">
          179 -10 175 -165 366 158 187 -149 149 hstemhm
          7 228 -82 207 77 204 hintmask 01100110
          638 524 rmoveto
          2 11 1 10 10 vvcurveto
          86 -69 70 -144 -156 -119 -85 -133 -30 9 -29 20 -32 vhcurveto
          hintmask 10101000
          -101 -48 -74 -79 -103 vvcurveto
          -110 98 -72 158 86 76 19 37 69 vhcurveto
          hintmask 01010110
          41 -46 rlineto
          244 hlineto
          -139 162 46 50 41 59 39 69 rlinecurve
          14 26 rlineto
          -215 hlineto
          -4 -9 -11 -22 -12 -20 -13 -19 rlinecurve
          -134 156 rlineto
          -21 24 -10 23 20 vvcurveto
          29 22 14 22 16 17 -9 -20 -3 0 -3 -1 -3 vhcurveto
          hintmask 10101000
          -124 -359 rmoveto
          -52 -25 24 28 22 16 27 29 20 hvcurveto
          99 -111 rlineto
          -6 -21 -22 -4 -24 hhcurveto
          endchar
        </CharString>
        <CharString name="ampersand.ss03">
          42 -7 183 -155 -21 464 251 -183 183 hstemhm
          10 194 -25 207 -207 462 -211 211 hintmask 01100010
          183 537 rmoveto
          -7 -41 1 -36 15 -35 -86 -23 -73 -77 -19 -107 rrcurveto
          hintmask 10101001
          -120 -21 60 -105 160 hhcurveto
          77 63 26 37 46 hvcurveto
          hintmask 01010101
          30 -56 561 callsubr
          -251 468 -11 22 -5 10 3 12 rlinecurve
          12 2 9 8 12 hhcurveto
          16 5 -9 -18 hvcurveto
          hintmask 01100101
          -11 -1 -14 -3 -16 vhcurveto
          206 hlineto
          9 39 4 43 -8 38 rrcurveto
          72 -15 -51 59 -134 hhcurveto
          hintmask 01100010
          -147 -91 -87 -91 -16 hvcurveto
          hintmask 10101001
          21 -313 rmoveto
          28 5 24 18 31 hhcurveto
          31 18 -18 -28 -5 hvcurveto
          -29 -5 -25 -19 -31 hhcurveto
          -31 -17 19 29 5 hvcurveto
          endchar
        </CharString>
        <CharString name="aogonek">
          22 -223 116 100 194 80 callgsubr
          582 callsubr
          hintmask 10110100
          -37 callgsubr
          -14 -75 -46 -34 -18 -33 -7 -38 rlinecurve
          205 callsubr
          -18 callgsubr
          46 21 rcurveline
          hintmask 10101100
          100 564 177 callsubr
          hintmask 10110100
          -29 callsubr
          hintmask 11010100
          28 callgsubr
        </CharString>
        <CharString name="aogonek.ss02">
          -12 -223 116 96 154 80 105 26 218 -178 178 205 callgsubr
          hintmask 11010010
          510 -207 342 callsubr
          rrcurveto
          hintmask 11010001
          46 21 58 329 rlineto
          3 19 1 15 16 vvcurveto
          -6 callsubr
          hintmask 11101101
          -71 callsubr
          -13 -74 -46 -34 -18 -33 -7 -38 rlinecurve
          340 callsubr
          hintmask 11010010
          42 39 6 10 35 hvcurveto
          hintmask 11110100
          -283 381 rmoveto
          27 27 22 38 vhcurveto
          70 -2 hlineto
          -41 -8 -42 -37 -44 hhcurveto
          -25 -16 11 20 hvcurveto
          endchar
        </CharString>
        <CharString name="apostrophemod.ss01">
          -377 394 callsubr
          vstem
          155 876 rmoveto
          15 callsubr
          endchar
        </CharString>
        <CharString name="approxequal">
          53 70 325 callsubr
          11 325 callsubr
          hstemhm
          2 718 hintmask 1000010010000000
          2 70 rmoveto
          164 hlineto
          hintmask 0001010010000000
          475 callsubr
          hintmask 0010010010000000
          381 callsubr
          hintmask 0001010010000000
          -58 -45 67 -96 hhcurveto
          hintmask 1000010010000000
          507 callsubr
          hintmask 0100100010000000
          275 vmoveto
          164 hlineto
          hintmask 0100000110000000
          475 callsubr
          hintmask 0100001010000000
          381 callsubr
          hintmask 0100000110000000
          -58 -45 67 -96 hhcurveto
          hintmask 0100100010000000
          507 callsubr
          endchar
        </CharString>
        <CharString name="aring">
          62 callsubr
          49 85 94 85 hstemhm
          471 89 hintmask 01100110
          -37 callgsubr
          hintmask 10010110
          63 callsubr
          hintmask 01100110
          -29 callsubr
          hintmask 10100110
          -86 callgsubr
          -116 443 rmoveto
          hintmask 01011110
          70 callsubr
          hintmask 10100110
          -73 -67 -50 -82 -15 hvcurveto
          hintmask 01011110
          178 hmoveto
          22 callsubr
          endchar
        </CharString>
        <CharString name="aring.ss02">
          16 callgsubr
          21 85 94 85 583 callgsubr
          156 225 -137 89 hintmask 1001001101000000
          293 725 rmoveto
          hintmask 1001011101000000
          70 callsubr
          hintmask 1001001101000000
          -73 -67 -50 -82 -15 hvcurveto
          hintmask 0101011101000000
          178 hmoveto
          22 callsubr
          -146 -725 rmoveto
          hintmask 0101001110000000
          221 hlineto
          58 329 rlineto
          3 19 1 15 16 vvcurveto
          hintmask 1001001110000000
          -6 callsubr
          hintmask 0100101110000000
          -71 callsubr
          hintmask 1011001101000000
          -111 98 rmoveto
          27 27 22 38 vhcurveto
          70 -2 hlineto
          -41 -8 -42 -37 -44 hhcurveto
          -25 -16 11 20 hvcurveto
          endchar
        </CharString>
        <CharString name="asciicircum">
          100 162 549 hstem
          4 708 vstem
          492 162 rmoveto
          220 hlineto
          -147 549 rlineto
          -218 hlineto
          -343 -549 297 callgsubr
          187 298 rlineto
          endchar
        </CharString>
        <CharString name="asciitilde">
          53 181 325 callsubr
          hstemhm
          2 718 hintmask 10001000
          2 181 rmoveto
          164 hlineto
          hintmask 00011000
          49 17 19 20 36 hhcurveto
          hintmask 01001000
          59 45 -67 96 hhcurveto
          hintmask 00101000
          116 104 76 188 62 hvcurveto
          -166 hlineto
          hintmask 01001000
          -50 -16 -19 -19 -36 hhcurveto
          hintmask 00011000
          -58 -45 67 -96 hhcurveto
          hintmask 10001000
          507 callsubr
          endchar
        </CharString>
        <CharString name="asterisk">
          -97 360 384 -36 -20 21 -20 hstemhm
          126 415 hintmask 10010000
          437 744 rmoveto
          -142 hlineto
          hintmask 01010000
          10 -119 -77 83 -88 -121 103 -32 -117 -36 52 -129 100 87 rlineto
          hintmask 10010000
          -48 -117 rlineto
          139 hlineto
          -8 117 72 -86 96 127 -105 34 117 36 rlineto
          hintmask 00110000
          -46 121 -108 -84 rlineto
          endchar
        </CharString>
        <CharString name="at">
          456 -245 149 89 154 -151 142 -142 426 -148 153 114 146 hstemhm
          60 160 77 185 109 170 -170 173 110 163 hintmask 1010111110100000
          762 -4 rmoveto
          180 95 142 177 220 -162 152 -246 -321 -248 -228 -323 -231 157 -150 240 86 80 16 30 68 hvcurveto
          -38 139 rlineto
          -21 -49 -64 -15 -73 hhcurveto
          -155 -92 98 150 213 169 176 221 162 102 -94 -138 -91 -24 -80 -57 hvcurveto
          hintmask 1010111101100000
          -30 -6 25 38 7 hvcurveto
          hintmask 1001011110100000
          39 221 rlineto
          -172 hlineto
          hintmask 1100111110100000
          -10 -58 rlineto
          38 -13 -37 25 -56 hhcurveto
          -129 -89 -132 -142 -102 59 -58 96 70 57 28 52 34 hvcurveto
          hintmask 1010111110100000
          -49 23 52 -28 74 hhcurveto
          hintmask 1100111110100000
          -171 228 rmoveto
          -46 -34 -31 -32 -26 -17 18 30 47 32 32 34 25 18 -19 -31 vhcurveto
          endchar
        </CharString>
        <CharString name="atilde">
          22 0 187 -173 -21 384 194 -7 428 callsubr
          13 667 hintmask 0110010010000000
          -37 callgsubr
          hintmask 1001010010000000
          63 callsubr
          hintmask 0110010010000000
          -29 callsubr
          hintmask 1010100010000000
          -86 callgsubr
          -238 330 423 callgsubr
          hintmask 0101000110000000
          158 callsubr
          hintmask 0101010010000000
          256 callgsubr
          hintmask 0101001010000000
          24 callgsubr
          hintmask 0101010010000000
          173 callsubr
          hintmask 1010100010000000
          97 callsubr
        </CharString>
        <CharString name="atilde.ss02">
          16 callgsubr
          40 -24 callgsubr
          -4 231 -231 664 -277 225 hintmask 1001010000100000
          171 612 423 callgsubr
          hintmask 1001000010100000
          158 callsubr
          hintmask 1001001000100000
          256 callgsubr
          hintmask 1001000100100000
          24 callgsubr
          hintmask 1001001000100000
          173 callsubr
          hintmask 1001010000100000
          -82 -65 -48 -128 -45 hvcurveto
          hintmask 0101001000010000
          154 -612 rmoveto
          221 hlineto
          58 329 rlineto
          3 19 1 15 16 vvcurveto
          hintmask 1001001000010000
          -6 callsubr
          hintmask 0100101001010000
          -71 callsubr
          hintmask 1011001001000000
          -111 98 rmoveto
          27 27 22 38 vhcurveto
          70 -2 hlineto
          -41 -8 -42 -37 -44 hhcurveto
          -25 -16 11 20 hvcurveto
          endchar
        </CharString>
        <CharString name="b">
          22 -7 194 -166 -21 377 363 -169 -20 189 -20 hstemhm
          0 667 hintmask 01011100
          308 487 rmoveto
          45 253 rlineto
          -222 376 callsubr
          222 hlineto
          hintmask 10011100
          14 77 449 callgsubr
          182 32 -84 107 -130 hhcurveto
          hintmask 01011100
          -75 -59 -33 -51 -36 hvcurveto
          hintmask 10100100
          265 callsubr
        </CharString>
        <CharString name="backslash">
          -66 -198 1153 hstem
          207 212 vstem
          401 955 rmoveto
          -212 hlineto
          36 -1153 rlineto
          212 hlineto
          endchar
        </CharString>
        <CharString name="bar">
          -396 -144 972 hstem
          -55 393 vstem
          116 828 rmoveto
          -171 -972 113 callsubr
          171 972 rlineto
          endchar
        </CharString>
        <CharString name="braceleft">
          484 callgsubr
          hstemhm
          69 217 -151 207 hintmask 11101000
          135 191 rmoveto
          hintmask 10110000
          -45 -66 -132 -84 vvcurveto
          -105 75 -56 120 vhcurveto
          76 439 callsubr
          -34 hlineto
          -37 -14 15 24 hvcurveto
          hintmask 11101000
          43 56 135 69 vvcurveto
          49 -28 38 -58 12 vhcurveto
          2 vlineto
          76 14 44 54 13 76 10 56 -2 90 7 41 rrcurveto
          33 6 19 21 44 hhcurveto
          34 439 callsubr
          -76 hlineto
          -137 -103 -73 -134 -23 hvcurveto
          -11 -61 10 -90 -10 -51 rrcurveto
          -42 -7 -26 -21 -70 hhcurveto
          -32 -181 rlineto
          62 20 -20 -31 hvcurveto
          endchar
        </CharString>
        <CharString name="braceright">
          484 callgsubr
          hstem
          214 219 vstem
          449 423 rmoveto
          -70 -18 21 42 7 hvcurveto
          9 49 39 83 13 70 rrcurveto
          134 23 -77 73 -137 hhcurveto
          -76 hlineto
          -31 -177 rlineto
          34 hlineto
          44 11 -21 -33 -6 hvcurveto
          -7 -41 -34 -90 -10 -56 -13 -76 24 -54 72 -14 rrcurveto
          -2 vlineto
          -77 -14 -43 -54 -14 -76 -10 -56 3 -90 -8 -41 rrcurveto
          -33 -6 -18 -21 -44 hhcurveto
          -34 hlineto
          -31 -177 rlineto
          76 hlineto
          137 102 73 134 24 hvcurveto
          12 70 -10 83 9 49 rrcurveto
          38 6 27 26 70 hhcurveto
          endchar
        </CharString>
        <CharString name="bracketleft">
          542 callsubr
          5 580 vstem
          5 -229 rmoveto
          382 hlineto
          31 178 rlineto
          -174 hlineto
          136 768 rlineto
          174 hlineto
          31 178 rlineto
          -382 hlineto
          endchar
        </CharString>
        <CharString name="bracketright">
          542 callsubr
          -34 580 vstem
          164 895 rmoveto
          -31 -178 rlineto
          174 hlineto
          -136 -768 rlineto
          -174 hlineto
          -31 -178 rlineto
          382 hlineto
          198 1124 rlineto
          endchar
        </CharString>
        <CharString name="breve">
          -263 600 186 callgsubr
          97 384 hintmask 10100000
          478 803 rmoveto
          hintmask 01100000
          289 callgsubr
          hintmask 10100000
          190 callsubr
          hintmask 01100000
          25 callsubr
          hintmask 10100000
          7 callsubr
          endchar
        </CharString>
        <CharString name="brokenbar">
          -226 -144 431 111 430 hstem
          30 393 vstem
          106 287 rmoveto
          -76 -431 113 callsubr
          76 431 rlineto
          19 111 rmoveto
          76 430 124 callgsubr
          -76 -430 rlineto
          endchar
        </CharString>
        <CharString name="bullet">
          -122 166 336 hstem
          106 342 vstem
          248 166 rmoveto
          95 85 73 94 17 hvcurveto
          95 17 -60 74 -95 hhcurveto
          -94 -87 -74 -95 -17 hvcurveto
          -94 -17 62 -73 94 hhcurveto
          endchar
        </CharString>
        <CharString name="c">
          -69 callsubr
          endchar
        </CharString>
        <CharString name="cacute">
          -69 callsubr
          231 468 -64 callgsubr
          endchar
        </CharString>
        <CharString name="caron">
          -307 592 229 hstem
          80 356 vstem
          256 733 -51 callgsubr
        </CharString>
        <CharString name="ccaron">
          -69 callsubr
          359 451 -51 callgsubr
        </CharString>
        <CharString name="ccedilla">
          -49 467 callsubr
          -100 361 -208 -21 22 -21 338 234 -190 190 hstemhm
          14 228 hintmask 11001101
          20 282 rmoveto
          hintmask 11010101
          -28 -157 72 -102 131 -25 rrcurveto
          hintmask 10100101
          -24 -132 53 callgsubr
          hintmask 11001101
          375 callsubr
          6 33 rlineto
          hintmask 10100011
          116 22 95 81 45 125 rrcurveto
          -235 hlineto
          -27 -12 -18 -17 -28 hhcurveto
          -34 -19 31 68 12 hvcurveto
          68 12 29 31 34 hhcurveto
          hintmask 11001101
          28 12 -17 -27 4 hvcurveto
          235 hlineto
          148 -1 -94 86 -145 hhcurveto
          -169 -138 -109 -180 -32 hvcurveto
          endchar
        </CharString>
        <CharString name="cdotaccent">
          -69 callsubr
          337 338 -63 callsubr
          endchar
        </CharString>
        <CharString name="cedilla">
          -315 -271 113 31 100 -100 134 hstemhm
          -88 347 hintmask 10110000
          155 7 535 callgsubr
          -24 -134 53 callgsubr
          hintmask 11010000
          375 callsubr
          endchar
        </CharString>
        <CharString name="cent">
          -79 -83 288 -191 -21 309 211 -211 287 -252 252 hstemhm
          10 553 -553 554 hintmask 10001010
          545 205 rmoveto
          -203 hlineto
          -25 -10 -31 -10 -20 hhcurveto
          -46 -17 31 52 9 hvcurveto
          52 9 29 32 46 hhcurveto
          hintmask 01010100
          20 23 -8 -27 6 hvcurveto
          203 hlineto
          hintmask 01100100
          14 130 -92 71 -116 10 rrcurveto
          hintmask 01010100
          14 76 rlineto
          -62 hlineto
          -14 -76 -152 -12 -112 -89 -28 -158 rlinecurve
          -28 -160 81 -89 148 -12 rrcurveto
          hintmask 10010100
          -13 -76 rlineto
          62 hlineto
          13 76 rlineto
          hintmask 10001010
          120 10 116 72 31 130 rrcurveto
          endchar
        </CharString>
        <CharString name="circumflex">
          -307 592 229 hstem
          65 356 vstem
          421 736 -51 callsubr
          endchar
        </CharString>
        <CharString name="colon">
          -339 -8 220 176 220 hstem
          -2 259 vstem
          255 317 callsubr
          396 vmoveto
          319 callgsubr
        </CharString>
        <CharString name="colon.ss01">
          -326 0 212 179 212 hstem
          12 327 vstem
          12 392 callgsubr
          31 179 542 callgsubr
          endchar
        </CharString>
        <CharString name="comma">
          -310 -118 303 hstem
          -13 303 vstem
          -13 -118 486 callsubr
        </CharString>
        <CharString name="comma.ss01">
          -382 -210 78 71 192 hstem
          51 137 vstem
          -2 229 callgsubr
          endchar
        </CharString>
        <CharString name="copyright">
          113 -6 65 -65 142 180 82 180 142 -65 65 hstemhm
          36 71 -71 137 172 93 184 139 -70 70 hintmask 1010110001000000
          463 720 rmoveto
          -211 -171 -149 -213 -38 hvcurveto
          -213 -37 118 -151 211 hhcurveto
          211 171 151 213 37 hvcurveto
          213 38 -118 149 -211 hhcurveto
          -11 -65 rmoveto
          176 89 -116 -181 -32 hvcurveto
          -180 -31 -131 -119 -176 hhcurveto
          -177 -88 119 180 31 hvcurveto
          181 32 130 116 177 hhcurveto
          hintmask 0111001110000000
          -10 -77 rmoveto
          107 77 -69 -111 -4 hvcurveto
          -184 hlineto
          17 -2 -6 18 -23 hhcurveto
          -28 -22 -24 -52 -9 hvcurveto
          -52 -9 13 -24 28 hhcurveto
          23 13 18 17 8 hvcurveto
          184 hlineto
          -111 -36 -101 -69 -107 hhcurveto
          -135 -76 85 136 24 hvcurveto
          136 24 106 85 135 hhcurveto
          endchar
        </CharString>
        <CharString name="currency">
          -55 193 127 116 125 hstemhm
          90 -42 callsubr
          462 hintmask 11100000
          379 377 rmoveto
          -42 -8 -30 -15 -30 hhcurveto
          -30 -26 15 42 8 hvcurveto
          44 7 31 15 30 hhcurveto
          30 26 -15 -44 -8 hvcurveto
          hintmask 11010000
          59 -239 rmoveto
          94 81 -41 49 30 30 20 37 8 44 rlinecurve
          8 45 -8 37 -20 30 60 50 rcurveline
          -66 81 -85 -72 rlineto
          7 -25 -28 4 -32 hhcurveto
          -33 -31 -4 -8 -29 hvcurveto
          hintmask 11100000
          -60 73 -94 -81 44 -53 -30 -29 -19 -36 -8 -44 rlinecurve
          -7 -43 6 -36 18 -29 -61 -52 rcurveline
          66 -81 81 69 rlineto
          -9 26 31 -5 35 hhcurveto
          33 32 4 9 29 hvcurveto
          endchar
        </CharString>
        <CharString name="d">
          22 433 callgsubr
          169 -20 hstemhm
          13 698 hintmask 01111000
          412 callgsubr
          hintmask 10111000
          -14 -77 rlineto
          120 callgsubr
          -45 -253 rlineto
          51 -18 -47 33 -75 hhcurveto
          hintmask 01111000
          -130 -122 -107 -182 -32 hvcurveto
          hintmask 10111000
          28 callgsubr
        </CharString>
        <CharString name="dagger">
          59 -270 1064 -1043 -21 675.5 158.5 hstemhm
          71 645 hintmask 01110000
          494 549 rmoveto
          hintmask 10010000
          65 245 124 callgsubr
          hintmask 01110000
          -22 -245 -214 15 -30 -166 220 15 -141 -683 113 callsubr
          98 683 216 -15 30 166 rlineto
          endchar
        </CharString>
        <CharString name="daggerdbl">
          58 -270 389 -151.5 151.5 286.5 158.5 -158.5 388.5 hstemhm
          -7 723 hintmask 10101000
          716 564 rmoveto
          -222 -15 rlineto
          hintmask 10011000
          64 245 124 callgsubr
          hintmask 10101000
          -21 -245 -215 15 -30 -166 221 15 -53 -302 -215 16 rlineto
          hintmask 01101000
          -30 -167 221 15 rlineto
          hintmask 10101000
          -65 -245 113 callsubr
          hintmask 01101000
          22 245 216 -15 rlineto
          hintmask 10101000
          30 167 -222 -16 53 302 216 -15 rlineto
          endchar
        </CharString>
        <CharString name="danda">
          -275 419 callgsubr
          76 332 388 callsubr
          endchar
        </CharString>
        <CharString name="dcaron">
          224 433 callgsubr
          -142 79 86 146 hstemhm
          13 922 -119 119 hintmask 01011010
          771 740 244 callsubr
          hintmask 01101100
          -907 -458 rmoveto
          -182 -32 84 -107 130 hhcurveto
          75 59 33 51 36 hvcurveto
          hintmask 10011100
          -14 -77 rlineto
          120 callgsubr
          hintmask 01101100
          -45 -253 rlineto
          51 -18 -47 33 -75 hhcurveto
          -130 -122 -107 -182 -32 hvcurveto
          hintmask 10101100
          28 callgsubr
        </CharString>
        <CharString name="dcroat">
          46 433 callgsubr
          21 96 -96 148 hstemhm
          13 753 hintmask 01101100
          412 callgsubr
          hintmask 10001100
          -14 -77 113 callsubr
          105 592 rlineto
          64 hlineto
          hintmask 01010100
          17 96 rlineto
          -64 hlineto
          hintmask 01001100
          9 52 124 callgsubr
          hintmask 01010100
          -9 -52 rlineto
          -59 hlineto
          hintmask 01001100
          -17 -96 rlineto
          59 hlineto
          hintmask 01101100
          -19 -105 rlineto
          51 -18 -47 33 -75 hhcurveto
          -130 -122 -107 -182 -32 hvcurveto
          hintmask 10101100
          28 callgsubr
        </CharString>
        <CharString name="degree">
          -162 347 117 136 115 hstem
          64 456 vstem
          67 533 rmoveto
          -114 -20 82 -72 135 hhcurveto
          135 98 72 114 20 hvcurveto
          115 21 -78 67 -135 hhcurveto
          -136 -101 -67 -115 -21 hvcurveto
          281 -2 rmoveto
          -49 -9 -30 -18 -24 hhcurveto
          -26 -32 18 49 9 hvcurveto
          51 9 35 18 26 hhcurveto
          24 27 -18 -51 -9 hvcurveto
          endchar
        </CharString>
        <CharString name="dieresis">
          -241 620 172 hstem
          83 330 callgsubr
          vstem
          155 620 -92 callsubr
          endchar
        </CharString>
        <CharString name="divide">
          -107 -8 220 -220 449 -201 201 26 220 hstemhm
          13 546 hintmask 00101000
          483 callsubr
          hintmask 01001000
          305 -340 rmoveto
          hintmask 10101000
          62 11 -40 49 -78 hhcurveto
          -79 -58 -49 -62 -11 hvcurveto
          hintmask 01001000
          -61 -11 41 -48 79 hhcurveto
          78 57 48 61 11 hvcurveto
          hintmask 00111000
          110 475 rmoveto
          319 callgsubr
        </CharString>
        <CharString name="divide.ss01">
          -107 0 212 28 201 28 212 hstemhm
          13 546 vstemhm
          483 callsubr
          hintmask 10110000
          66 -441 542 callgsubr
          45 257 rmoveto
          220 hlineto
          37 212 rlineto
          -220 hlineto
          endchar
        </CharString>
        <CharString name="dollar">
          7 -87 314 -234 234 264 228 -228 309 hstemhm
          20 644 -599 244 -244 562 -241 241 hintmask 10101000
          234 -87 rmoveto
          62 hlineto
          hintmask 01101000
          14 80 178 4 115 94 21 118 rlinecurve
          hintmask 01100010
          30 168 -161 33 -103 35 17 98 rcurveline
          11 -9 7 -15 -2 -28 rrcurveto
          239 hlineto
          15 139 -84 78 -155 11 rrcurveto
          hintmask 01010010
          14 81 rlineto
          -62 hlineto
          hintmask 01100010
          -14 -81 -147 -6 -136 -74 -24 -135 rlinecurve
          -30 -171 153 -34 105 -30 -18 -98 rcurveline
          -15 9 -9 17 3 30 rrcurveto
          -236 hlineto
          -16 -143 97 -75 145 -14 rrcurveto
          hintmask 01100101
          138 209 rmoveto
          -4 -24 -18 -14 -24 -4 15 86 rcurveline
          22 -11 13 -13 -4 -20 rrcurveto
          -77 310 rmoveto
          3 20 13 12 21 4 -14 -80 rcurveline
          -17 12 -9 13 3 19 rrcurveto
          endchar
        </CharString>
        <CharString name="dotaccent">
          -466 620 172 hstem
          83 175 vstem
          155 620 -63 callsubr
          endchar
        </CharString>
        <CharString name="dotlessi">
          463 callsubr
          hstem
          25 322 vstem
          25 hmoveto
          144 callsubr
          endchar
        </CharString>
        <CharString name="dottedcircle">
          -7 -9 84 -70 84 -52 84 -40 84 -32 84 -23 84 -25 84 -22 84 -32 84 -37 84 -57 84 -69 84 hstemhm
          50 86 -71 86 -56 86 -40 86 -34 86 -21 86 -27 86 -24 86 -33 86 -47 86 -52 86 -76 86 hintmask 000100001000001000000100
          557 409 -29 callgsubr
          -376 -286 -29 callgsubr
          hintmask 010001000000100010000000
          98 -76 -29 callgsubr
          -143 189 -29 callgsubr
          hintmask 100000010000010000100000
          267 -203 -29 callgsubr
          -252 324 -29 callgsubr
          hintmask 001000000100000100001000
          367 -278 -29 callgsubr
          -291 377 -29 callgsubr
          hintmask 000010000001000001000010
          364 -281 -29 callgsubr
          -247 323 -29 callgsubr
          hintmask 000000100010000000010001
          257 -203 -29 callgsubr
          -136 188 -29 callgsubr
          endchar
        </CharString>
        <CharString name="doubledanda">
          37 419 callgsubr
          76 644 388 callsubr
          109 hmoveto
          -130 -740 581 callgsubr
          130 740 rlineto
          endchar
        </CharString>
        <CharString name="dvA">
          187 10 callgsubr
          527 callgsubr
          891 -575 82 callsubr
          77 hlineto
          29 169 rlineto
          -280 21 callsubr
          hintmask 1000010000100000
          61 callsubr
          hintmask 0000100100100000
          70 callgsubr
          endchar
        </CharString>
        <CharString name="dvAA">
          521 10 callgsubr
          hstemhm
          30 194 -194 1225 -909 82 callsubr
          130 hlineto
          -100 -571 -65 callsubr
          76 hlineto
          30 169 rlineto
          -614 21 callsubr
          hintmask 1000010000100000
          61 callsubr
          hintmask 0000100100100000
          70 callgsubr
          endchar
        </CharString>
        <CharString name="dvAI">
          -5 19 -42 callsubr
          224 328 169 109 163 hstemhm
          24 705 hintmask 01111000
          282 19 rmoveto
          391 callsubr
          hintmask 10111000
          119 callgsubr
          504 callsubr
          rlinecurve
          10 56 rlineto
          71 -96 callsubr
          -83 hlineto
          -85 238 -52 33 -169 304 callsubr
          15 -18 -91 45 hvcurveto
          -402 -107 callgsubr
          80 hlineto
          -53 -305 rlineto
          hintmask 01111000
          502 callgsubr
          endchar
        </CharString>
        <CharString name="dvAU">
          521 10 callgsubr
          42 556 callgsubr
          496 callgsubr
          hintmask 1000001011010000
          714 hmoveto
          104 callgsubr
          -91 hlineto
          335 -116 -22 16 -167 -45 callgsubr
          106 -17 0 -51 90 hvcurveto
          -345 21 callsubr
          hintmask 1000010011001000
          61 callsubr
          hintmask 0100100111101000
          70 callgsubr
          -49 hlineto
          71 callsubr
          hintmask 0010001011100000
          85 callsubr
          hintmask 0001001011010000
          113 90 60 99 33 hvcurveto
          74 hlineto
          hintmask 1000001011010000
          -39 -222 rlineto
          endchar
        </CharString>
        <CharString name="dvAbbreviationsign">
          -193 157 119 105 119 hstem
          54 124 108 125 vstem
          264 500 rmoveto
          -104 -85 -71 -101 -18 hvcurveto
          -100 -18 61 -71 104 hhcurveto
          103 83 71 100 18 hvcurveto
          101 18 -59 71 -103 hhcurveto
          -21 -119 rmoveto
          30 18 -22 -31 -5 hvcurveto
          -31 -6 -25 -21 -30 hhcurveto
          -32 -21 21 31 6 hvcurveto
          31 5 28 22 32 hhcurveto
          endchar
        </CharString>
        <CharString name="dvAcandra">
          187 10 callgsubr
          65 465 callsubr
          30 194 -194 1036 -720 82 callgsubr
          77 hlineto
          29 169 rlineto
          -280 21 callsubr
          hintmask 1000010001001000
          61 callsubr
          hintmask 0000100101001000
          70 callgsubr
          786 554 164 callsubr
        </CharString>
        <CharString name="dvAnusvara">
          -658 799 227 hstem
          -192 232 vstem
          38 912 15 callgsubr
        </CharString>
        <CharString name="dvAnusvara.amI">
          -658 799 227 hstem
          24 232 vstem
          254 912 15 callgsubr
        </CharString>
        <CharString name="dvAvagraha">
          -48 37 170 294 171 hstemhm
          136 206 -206 364 -206 206 hintmask 11010000
          280 37 rmoveto
          105 93 56 106 19 hvcurveto
          hintmask 11100000
          32 184 -197 44 10 56 rrcurveto
          16 2 15 2 10 hhcurveto
          191 hlineto
          30 171 rlineto
          -243 hlineto
          -107 -83 -55 -102 -18 hvcurveto
          hintmask 11001000
          -32 -181 197 -46 -10 -58 rrcurveto
          -17 -3 -13 -6 -22 hhcurveto
          -237 hlineto
          -30 -170 rlineto
          endchar
        </CharString>
        <CharString name="dvB">
          -289 38 138 213 137 45 169 hstem
          24 633 vstem
          572 288 rmoveto
          128 19 -81 110 -176 -33 callgsubr
          185 103 113 137 20 hvcurveto
          -248 101 -74 callsubr
          303 182 rmoveto
          -105 callgsubr
          -603 -107 callgsubr
          262 -395 -73 callgsubr
          endchar
        </CharString>
        <CharString name="dvBA">
          29 0 182 534 callsubr
          213 129 47 380 callsubr
          739 -737 179 hintmask 10111000
          557 hmoveto
          -78 callsubr
          -709 -107 callgsubr
          437 433 callsubr
          -148 -111 -88 -138 -24 hvcurveto
          hintmask 01110100
          204 callsubr
          hintmask 10110100
          -15 -85 rlineto
          -27 395 rmoveto
          63 37 -45 -62 -10 hvcurveto
          -1 -8 -3 -8 -2 300 callsubr
          8 147 -114 rcurveline
          -10 -18 -21 -6 -23 hhcurveto
          endchar
        </CharString>
        <CharString name="dvBH">
          -99 36 172 97 166 38 240 557 callgsubr
          17 -5 callgsubr
          hintmask 11101001
          251 208 -70 callsubr
          206 hlineto
          29 166 rlineto
          -206 hlineto
          4 25 rlineto
          57 callgsubr
          hintmask 11100010
          109 callgsubr
          hintmask 11100101
          3 callgsubr
          hintmask 11010101
          -46 callgsubr
          hintmask 11101001
          51 callgsubr
        </CharString>
        <CharString name="dvBHA">
          231 211 callgsubr
          97 166 38 240 370 callsubr
          17 -5 callgsubr
          hintmask 0110101001000000
          251 99 callsubr
          hintmask 1000101001000000
          -22 callgsubr
          hintmask 1001001001000000
          57 callgsubr
          hintmask 1001000010000000
          109 callgsubr
          hintmask 1001000101000000
          3 callgsubr
          hintmask 1000010101000000
          -46 callgsubr
          hintmask 0100101001000000
          -133 -24 82 579 callsubr
          hintmask 0110101001000000
          88 callgsubr
          endchar
        </CharString>
        <CharString name="dvBH_LA">
          817 5 176 -145 172 19 368 callgsubr
          106 callsubr
          -231 240 370 callsubr
          17 -5 callgsubr
          26 144 callgsubr
          hintmask 010010001010010010000000
          251 208 -70 callsubr
          78 hlineto
          -3 -10 -2 -11 -2 -11 rrcurveto
          hintmask 100000100010011100000000
          -102 callsubr
          44 8 28 28 41 hhcurveto
          49 7 -42 -35 -7 hvcurveto
          hintmask 010100000010010100000000
          -31 callsubr
          hintmask 010000100010010100000000
          5 29 rlineto
          hintmask 100000100010010010000000
          -82 callgsubr
          -22 callsubr
          hintmask 011000001010010010000000
          -49 callgsubr
          -888 -107 callgsubr
          528 hlineto
          35 callsubr
          -3 hlineto
          hintmask 010001001010010010000000
          54 -21 -53 40 -89 hhcurveto
          hintmask 010010010010010010000000
          -51 -54 -12 -29 -47 hvcurveto
          -166 hlineto
          4 25 rlineto
          57 callgsubr
          hintmask 010010010000100010000000
          109 callgsubr
          hintmask 010010010001010010000000
          3 callgsubr
          hintmask 010010000101010010000000
          -46 callgsubr
          hintmask 010010001010010010000000
          51 callgsubr
        </CharString>
        <CharString name="dvBH_NA">
          744 0 491 -455 172 -169 171 95 166 -149 169 18 240 370 callsubr
          17 -5 callgsubr
          27 -4 callsubr
          hintmask 0101001010010100
          251 208 238 callsubr
          -9 -2 -9 -2 -9 rrcurveto
          hintmask 0010101010011100
          -138 -24 96 -101 138 hhcurveto
          -50 callsubr
          hintmask 1000001010010100
          -57 -322 325 callgsubr
          -814 -107 callgsubr
          534 hlineto
          158 callgsubr
          hintmask 0001010010010100
          -45 -43 -6 -14 -38 hvcurveto
          -204 hlineto
          4 25 rlineto
          57 callgsubr
          hintmask 1000010000100100
          109 callgsubr
          hintmask 1000010001010100
          3 callgsubr
          hintmask 0001000101010100
          -46 callgsubr
          hintmask 0100001010010100
          -133 -24 82 579 callsubr
          hintmask 0101001010010100
          88 callgsubr
          hintmask 0010101010011100
          260 -11 153 callgsubr
        </CharString>
        <CharString name="dvBH_R">
          -99 -99 324 489 callsubr
          92 162 34 236 -172 481 callsubr
          hintmask 01110101
          253 225 54 callgsubr
          250 71 rmoveto
          4 21 rlineto
          207 hlineto
          hintmask 10110101
          -525 -416 297 callgsubr
          276 236 32 180 28 162 rlineto
          -210 hlineto
          3 17 rlineto
          307 callsubr
          hintmask 01110010
          324 callgsubr
          hintmask 01110101
          198 hlineto
          hintmask 01101101
          198 callsubr
          hintmask 01110101
          417 callsubr
          endchar
        </CharString>
        <CharString name="dvBH_RA">
          251 -99 324 -204 -21 59 166 92 162 34 358 callgsubr
          hintmask 0111010101000000
          253 225 54 callgsubr
          250 71 rmoveto
          4 21 rlineto
          132 hlineto
          -13 -70 rlineto
          hintmask 1001010101000000
          -437 -346 297 callgsubr
          hintmask 0111010101000000
          244 callgsubr
          hintmask 0111100101000000
          307 callsubr
          hintmask 0111100010000000
          324 callgsubr
          hintmask 0111100101000000
          198 hlineto
          hintmask 0111001101000000
          198 callsubr
          hintmask 0111010101000000
          417 callsubr
          endchar
        </CharString>
        <CharString name="dvBH_R_YA">
          650 -99 324 -225 232 -173 166 -162 169 85 154 42 358 callgsubr
          hintmask 0010101010100000
          253 225 54 callgsubr
          250 71 rmoveto
          4 21 rlineto
          70 hlineto
          -4 -38 2 -34 9 -31 rrcurveto
          hintmask 1000101010100000
          -395 -313 297 callgsubr
          hintmask 0001101010100000
          246 210 rlineto
          -31 42 56 -17 69 hhcurveto
          70 58 20 34 44 hvcurveto
          hintmask 0100101010100000
          3 callsubr
          -129 hlineto
          4 25 rlineto
          hintmask 0100110010100000
          307 callsubr
          hintmask 0100110001000000
          324 callgsubr
          hintmask 0100110010100000
          198 hlineto
          hintmask 0010100110100000
          10 0 7 2 9 vhcurveto
          20 4 13 18 23 549 callsubr
          -11 -63 rlineto
          -45 354 callsubr
          -62 -141 -25 hvcurveto
          -127 -22 83 -82 143 hhcurveto
          hintmask 0010101010100000
          417 callsubr
          hintmask 0100101010100000
          378 -64 20 callgsubr
          endchar
        </CharString>
        <CharString name="dvBH_VA">
          557 414 callsubr
          -8 240 370 callsubr
          17 -5 callgsubr
          30 200 hintmask 1000101010011000
          845 203 -100 callsubr
          hintmask 0101001010010000
          195 callsubr
          hintmask 0011001010011000
          -23 callgsubr
          hintmask 1000101010010000
          100 callgsubr
          hintmask 1001010010010000
          -62 -52 -16 -30 -41 hvcurveto
          -149 hlineto
          4 25 rlineto
          57 callgsubr
          hintmask 1001010000100000
          109 callgsubr
          hintmask 1001010001010000
          3 callgsubr
          hintmask 1001000101010000
          -46 callgsubr
          hintmask 0101001010010000
          51 callgsubr
        </CharString>
        <CharString name="dvBH_YA">
          650 396 callsubr
          73 166 38 240 370 callsubr
          17 -5 callgsubr
          hintmask 0101010100100000
          251 208 -65 callgsubr
          hintmask 1001010100100000
          630 24 20 callgsubr
          hintmask 0101010100100000
          -377 45 rmoveto
          5 28 rlineto
          67 hlineto
          hintmask 0011010100100000
          224 callsubr
          hintmask 1001010100100000
          3 callsubr
          -125 hlineto
          4 25 rlineto
          hintmask 1001100100100000
          57 callgsubr
          hintmask 1001100001000000
          109 callgsubr
          hintmask 1001100010100000
          3 callgsubr
          hintmask 1001001010100000
          -46 callgsubr
          hintmask 0101010100100000
          51 callgsubr
        </CharString>
        <CharString name="dvB_BA">
          416 0 182 -144 138 -137 143 207 137 -131 512 callsubr
          345 278 callsubr
          1126 hintmask 10010011
          324 389 -74 callsubr
          620 -389 rmoveto
          -78 callsubr
          -1096 -107 callgsubr
          824 hlineto
          hintmask 10001011
          130 callgsubr
          -72 -64 -21 -37 -48 hvcurveto
          hintmask 01010011
          37 -41 -60 23 -81 -33 callgsubr
          84 67 23 39 50 hvcurveto
          hintmask 00110011
          -38 35 52 -23 63 hhcurveto
          58 53 15 31 37 hvcurveto
          hintmask 10010011
          -15 -85 rlineto
          hintmask 01010011
          -462 176 -73 callgsubr
          hintmask 10000101
          398 6 29 callsubr
        </CharString>
        <CharString name="dvB_BHA">
          619 211 callgsubr
          -170 138 129 166 -82 137 45 210 callsubr
          747 190 hintmask 01010101
          639 99 callsubr
          hintmask 10000101
          -22 callgsubr
          hintmask 10000011
          57 callgsubr
          hintmask 10000101
          279 callgsubr
          -612 -107 callgsubr
          683 hlineto
          3 5 6 2 6 434 callgsubr
          -43 hlineto
          -54 -53 -11 -23 -45 hvcurveto
          hintmask 00101101
          54 -38 -69 35 -100 -33 callgsubr
          77 63 20 32 48 hvcurveto
          hintmask 01000101
          -34 36 55 -20 69 hhcurveto
          hintmask 01010101
          88 callgsubr
          hintmask 00101101
          -568 112 -74 callsubr
          -38 -213 -73 callgsubr
          endchar
        </CharString>
        <CharString name="dvB_BH_RA">
          643 -99 324 -204 -21 38 138 -117 166 92 162 -90 137 45 210 callsubr
          754 183 hintmask 0110011010000000
          324 389 -74 callsubr
          -38 -213 -73 callgsubr
          hintmask 0101101010000000
          359 49 54 callgsubr
          58 346 rmoveto
          4 6 7 2 8 549 callsubr
          -10 -55 rlineto
          -46 hlineto
          -58 -56 -12 -25 -47 hvcurveto
          hintmask 0110011010000000
          51 -38 -68 33 -97 -33 callgsubr
          86 69 25 40 51 hvcurveto
          hintmask 0101101010000000
          -28 35 51 -16 63 hhcurveto
          417 callsubr
          4 21 rlineto
          132 hlineto
          -13 -70 rlineto
          hintmask 1000101010000000
          -437 -346 297 callgsubr
          hintmask 0110101010000000
          244 callgsubr
          hintmask 0110100110000000
          307 callsubr
          hintmask 0110101010000000
          -29 557 callsubr
          -615 221 callgsubr
        </CharString>
        <CharString name="dvB_DA">
          343 309 callsubr
          -229 138 -132 566 callsubr
          -351 236 callgsubr
          1053 hintmask 0010001110000000
          324 389 -74 callsubr
          -38 -213 -73 callgsubr
          760 395 406 callgsubr
          -1023 -107 callgsubr
          724 hlineto
          hintmask 0100100110000000
          257 callsubr
          -76 -68 -18 -36 -53 hvcurveto
          hintmask 0010001110000000
          43 -40 -64 27 -87 -33 callgsubr
          79 65 21 34 49 hvcurveto
          hintmask 0001100110000000
          -33 32 45 -16 47 hhcurveto
          46 39 12 23 30 hvcurveto
          hintmask 0100100110000000
          -37 callsubr
          hintmask 1000010010000000
          -69 callgsubr
          hintmask 0100100110000000
          240 callsubr
        </CharString>
        <CharString name="dvB_DHA">
          467 0 231 -193 136 -109 166 87 163 -90 135 2 101 callsubr
          25 168 262 4 callsubr
          hintmask 0101000111010000
          332 callsubr
          -19 -5 -20 hhcurveto
          881 397 rmoveto
          326 callgsubr
          hintmask 1001010011010000
          22 callgsubr
          -92 hlineto
          -37 -42 9 53 11 hvcurveto
          452 callsubr
          hintmask 1001001011010000
          51 callsubr
          hintmask 0100100110100000
          315 callgsubr
          -551 67 callsubr
          434 438 callgsubr
          -45 -13 -61 -35 -24 -70 -2 -6 -3 -8 -4 166 callsubr
          77 70 25 49 53 hvcurveto
          hintmask 0011000110100000
          -31 37 54 -16 63 460 callsubr
          hintmask 1001000110100000
          -24 -137 -99 callsubr
        </CharString>
        <CharString name="dvB_DH_VA">
          822 0 203 -165 136 -133 162 -140 511 callgsubr
          -126 162 -126 135 2 101 callsubr
          25 168 262 4 callsubr
          hintmask 0100010001110100
          332 callsubr
          -20 -5 -19 hhcurveto
          1159 397 65 callsubr
          -603 -107 callgsubr
          328 hlineto
          430 callsubr
          hintmask 0001100100110100
          159 callgsubr
          hintmask 1000100010110100
          51 callsubr
          hintmask 0100001001101000
          315 callgsubr
          -551 67 callsubr
          434 437 callgsubr
          -46 -12 -61 -31 -22 -71 -3 -9 -3 -9 -5 166 callsubr
          80 74 28 53 53 hvcurveto
          hintmask 0001100001101000
          -38 47 73 -18 83 hhcurveto
          86 68 22 39 51 hvcurveto
          hintmask 0010100001110100
          -53 30 56 -30 74 -17 callsubr
          hintmask 1000010001110100
          -16 -93 357 callgsubr
          -240 203 -100 callsubr
          endchar
        </CharString>
        <CharString name="dvB_JA">
          570 0 298 callgsubr
          hintmask 01000110
          287 176 169 callsubr
          987 395 rmoveto
          -105 callgsubr
          -1250 -107 callgsubr
          970 hlineto
          hintmask 10000101
          281 callsubr
          hintmask 00101101
          -28 -156 128 callgsubr
          hintmask 01000110
          302 callgsubr
          hintmask 00110101
          448 callgsubr
          hintmask 10000101
          305 callgsubr
          hintmask 00001101
          -874 -182 169 callgsubr
          endchar
        </CharString>
        <CharString name="dvB_JHA">
          721 456 callgsubr
          -301 138 11 315 callsubr
          45 262 callgsubr
          356 -348 134 -134 348 -94 callgsubr
          23 14 callsubr
          1432 -656 182 hintmask 0000100100011000
          287 176 554 callgsubr
          1 8 3 8 2 8 152 -117 rcurveline
          -9 -19 -21 -4 -25 hhcurveto
          hintmask 0001000010000100
          394 163 rmoveto
          225 callsubr
          15 2 14 8 19 hhcurveto
          253 hlineto
          hintmask 0001000100010100
          255 callsubr
          173 hlineto
          -41 -232 rlineto
          142 -339 rmoveto
          -78 callsubr
          -1401 -107 callgsubr
          755 hlineto
          -7 -43 rlineto
          -103 hlineto
          -105 -89 -53 -112 -19 hvcurveto
          -4 -22 -6 -35 -11 -31 -16 -27 rlinecurve
          hintmask 0001000000100100
          -160 125 rlineto
          13 23 28 6 30 hhcurveto
          19 19 -2 -5 20 hvcurveto
          hintmask 0000100001011000
          23 132 rlineto
          6 -24 -34 3 -21 hhcurveto
          -199 -93 451 callgsubr
          -23 hvcurveto
          -138 -24 94 -112 166 hhcurveto
          144 84 72 102 45 hvcurveto
          hintmask 0100001100010010
          19 -8 21 -4 21 -1 rrcurveto
          -2 32 76 0 47 hhcurveto
          39 12 -15 -21 -4 hvcurveto
          -20 -4 -15 -13 -26 hhcurveto
          hintmask 1000000100010100
          -24 -17 12 28 4 hvcurveto
          -173 hlineto
          -45 -257 rlineto
          183 hlineto
          hintmask 0010000100010010
          16 94 rlineto
          -13 19 34 -12 44 hhcurveto
          100 71 63 89 15 hvcurveto
          hintmask 0000010100010010
          237 callgsubr
          97 hlineto
          hintmask 0001000100010100
          -33 -187 rlineto
          endchar
        </CharString>
        <CharString name="dvB_J_YA">
          1023 0 232 -194 138 -138 702 -677 677 -660 178 14 169 -52 236 callgsubr
          170 -170 1733 -807 202 hintmask 0100001110000000
          324 389 169 callgsubr
          -37 -213 169 callsubr
          hintmask 1000010100100000
          967 56 21 callgsubr
          -1703 -107 callgsubr
          1111 328 callgsubr
          hintmask 0000101101000000
          -21 -116 128 callgsubr
          hintmask 0010000010000000
          302 callgsubr
          hintmask 0000110100100000
          -20 28 42 -12 57 hhcurveto
          134 90 77 115 36 hvcurveto
          hintmask 1000010100100000
          31 26 0 1 23 hvcurveto
          hintmask 0001000000100000
          223 callgsubr
          hintmask 1000010101000000
          363 callgsubr
        </CharString>
        <CharString name="dvB_JxA">
          570 -189 227 -38 298 callgsubr
          hintmask 1000001010000000
          681 -77 rmoveto
          -99 callgsubr
          hintmask 0010001100000000
          -394 253 169 callsubr
          987 395 rmoveto
          -105 callgsubr
          -1250 -107 callgsubr
          970 hlineto
          hintmask 0100001010000000
          281 callsubr
          hintmask 0001011010000000
          -28 -156 128 callgsubr
          hintmask 0010001100000000
          302 callgsubr
          hintmask 0001101010000000
          448 callgsubr
          hintmask 0100001010000000
          305 callgsubr
          hintmask 0000011010000000
          -874 -182 169 callgsubr
          endchar
        </CharString>
        <CharString name="dvB_LA">
          623 5 176 -143 138 51 -52 callgsubr
          -351 137 -137 351 -94 callgsubr
          716 508 355 callsubr
          hintmask 1010000010100000
          1219 251 rmoveto
          -49 callgsubr
          -1303 -107 callgsubr
          943 hlineto
          35 callsubr
          -3 hlineto
          hintmask 1000100010100000
          54 -21 -53 40 -89 hhcurveto
          -48 -52 -14 -35 -44 hvcurveto
          hintmask 0100001010100000
          39 -40 -62 24 -82 -33 callgsubr
          71 58 16 28 47 hvcurveto
          hintmask 1000010001000000
          -48 34 59 -29 82 hhcurveto
          7 9 0 1 14 hvcurveto
          -91 callgsubr
          hintmask 1001000001000000
          -31 callsubr
          hintmask 1000010001000000
          5 29 rlineto
          hintmask 1000010000100000
          -82 callgsubr
          -32 -176 rlineto
          -1 10 18 -1 7 hhcurveto
          hintmask 1010000010100000
          174 -5 116 100 27 151 rrcurveto
          hintmask 0100000100100000
          -933 -75 -73 callgsubr
          38 213 -74 callsubr
          endchar
        </CharString>
        <CharString name="dvB_L_YA">
          1088 553 callsubr
          -143 138 -138 702 -677 677 287 callgsubr
          -351 137 -137 351 278 callsubr
          1798 hintmask 0010000001011000
          286 176 -73 callgsubr
          hintmask 1000000100011000
          1033 56 rmoveto
          -72 -34 39 43 4 hvcurveto
          110 20 45 80 16 87 13 70 -83 callsubr
          112 callsubr
          -90 hhcurveto
          -76 callgsubr
          -1768 -107 callgsubr
          1176 hlineto
          -6 -32 -6 -31 -8 -30 -19 -23 rlinecurve
          38 -33 -48 19 -55 hhcurveto
          hintmask 0000010000011000
          296 callgsubr
          hintmask 1000000100011000
          54 -21 -53 40 -89 hhcurveto
          -49 -52 -14 -34 -44 hvcurveto
          hintmask 1000000001011000
          38 -40 -61 24 -82 34 callsubr
          hintmask 0001000000001000
          -138 -19 87 -112 169 hhcurveto
          73 60 18 29 48 hvcurveto
          hintmask 0100000010001000
          -49 34 57 -31 79 hhcurveto
          7 9 0 1 14 hvcurveto
          -91 callgsubr
          hintmask 0000001000001000
          -31 callsubr
          hintmask 1000000010001000
          -35 callsubr
          31 18 -18 -30 2 hvcurveto
          hintmask 0000100000001000
          -136 -3 80 -86 155 hhcurveto
          78 63 22 37 47 hvcurveto
          hintmask 1000000001011000
          -21 -122 -97 callsubr
          hintmask 1000000000101000
          -1392 -182 -74 callsubr
          endchar
        </CharString>
        <CharString name="dvB_NA">
          578 0 491 -453 138 -137 171 112 169 -102 137 45 -3 callgsubr
          712 156 hintmask 00110110
          598 266 -104 callgsubr
          hintmask 01001110
          -274 123 -74 callsubr
          -38 -213 -73 callgsubr
          996 395 rmoveto
          -105 callgsubr
          -1258 -107 callgsubr
          978 hlineto
          hintmask 10000110
          158 callgsubr
          -63 -60 -13 -28 -49 hvcurveto
          hintmask 01001110
          46 -39 -66 30 -91 -33 callgsubr
          84 67 23 39 50 hvcurveto
          hintmask 00110110
          -39 38 56 -22 65 hhcurveto
          -50 callsubr
          hintmask 10000110
          -57 -322 -99 callsubr
        </CharString>
        <CharString name="dvB_R">
          -289 -68 244 213 236 callgsubr
          170 -170 633 hintmask 11101000
          627 -81 callgsubr
          -603 -107 callgsubr
          548 -283 rmoveto
          128 19 -81 110 -176 34 callsubr
          hintmask 11110000
          -18 -128 73 -105 145 -15 -108 -108 rcurveline
          202 hlineto
          174 194 rlineto
          hintmask 11101000
          42 44 26 57 9 61 rrcurveto
          -248 101 -74 callsubr
          hintmask 11110000
          -38 -213 -73 callgsubr
          endchar
        </CharString>
        <CharString name="dvB_RA">
          28 -68 250 -182 182 213 129 47 380 callsubr
          738 -736 179 hintmask 01111000
          361 hmoveto
          196 hlineto
          -44 callgsubr
          75 -96 callsubr
          -708 -107 callgsubr
          437 433 callsubr
          -142 -117 -88 -138 -24 hvcurveto
          hintmask 01110100
          -20 -114 48 -93 97 -31 rrcurveto
          hintmask 10110100
          -129 -128 rlineto
          212 hlineto
          hintmask 01110100
          114 callgsubr
        </CharString>
        <CharString name="dvB_SA">
          557 -54 callgsubr
          212 -174 138 93 166 -46 236 callgsubr
          1267 hintmask 00010111
          324 389 -74 callsubr
          -38 -213 -73 callgsubr
          562 344 553 callgsubr
          hintmask 00101011
          269 callsubr
          hintmask 00010111
          11 callgsubr
          -1237 -107 callgsubr
          629 hlineto
          -9 -51 -9 -49 -20 -40 -63 -13 rlinecurve
          64 -34 -73 44 -111 -33 callgsubr
          65 55 14 24 44 hvcurveto
          hintmask 01001011
          -52 33 60 -33 87 hhcurveto
          hintmask 00101011
          144 99 81 140 12 534 callgsubr
          hintmask 10001011
          -97 callgsubr
          312 hlineto
          hintmask 00101011
          -47 -269 -99 callsubr
        </CharString>
</ttFont>
